<?xml version="1.0" encoding="utf-8"?>
<!-- Generator: Adobe Illustrator 23.0.1, SVG Export Plug-In . SVG Version: 6.00 Build 0)  -->
<svg version="1.1" id="Layer_1" xmlns="http://www.w3.org/2000/svg" xmlns:xlink="http://www.w3.org/1999/xlink" x="0px" y="0px"
	 viewBox="0 0 45 35" style="enable-background:new 0 0 45 35;" xml:space="preserve">
<style type="text/css">
	.st0{fill:#FFFFFF;}
</style>
<g id="Group_610" transform="translate(0 0)">
	<path id="Path_580" d="M33.6,6.3H11.3v22.3h22.3v-7.4c0.1-0.1,0.1-0.3,0.1-0.5c0-0.2,0-0.3-0.1-0.5"/>
	<g id="Group_609" transform="translate(0 19.821)">
		<path id="Path_581" class="st0" d="M12.5-3.8h0.9l-0.4-1L12.5-3.8z"/>
		<path id="Path_582" class="st0" d="M30.8-5.8v0.4l-0.2-0.4h-1.8v0.4l-0.2-0.4h-2.4c-0.4,0-0.7,0.1-1,0.2v-0.2h-1.7v0.2
			c-0.2-0.2-0.5-0.2-0.7-0.2h-6.1l-0.4,0.9l-0.4-0.9h-1.9v0.4l-0.2-0.4h-1.6l-0.8,1.7v1.9h1.1l0.2-0.6h0.5l0.2,0.6h2.1v-0.4l0.2,0.4
			h1.1L17-2.6v0.5h5.2l0-1h0.1c0.1,0,0.1,0,0.1,0.1v0.8h2.7v-0.2c0.3,0.2,0.7,0.2,1,0.2h1.1l0.2-0.6H28l0.2,0.6h2.2v-0.6l0.3,0.6
			h1.8v-3.7H30.8z M17.4-2.7l0-2.1l-0.9,2.1H16l-0.9-2.1v2.1h-1.3l-0.2-0.6h-1.3L12-2.7h-0.7l1.1-2.6h0.9l1.1,2.5v-2.5h1l0.8,1.8
			L17-5.3h1v2.6H17.4z M20.6-4.8h-1.5v0.5h1.4v0.5h-1.4v0.5h1.5v0.5h-2.1v-2.6h2.1L20.6-4.8z M23.4-3.7c0.1,0.1,0.1,0.3,0.1,0.5v0.5
			h-0.6l0-0.3c0-0.2,0-0.4-0.1-0.5c-0.1-0.1-0.2-0.1-0.5-0.1h-0.7v1H21v-2.6h1.4c0.3,0,0.5,0,0.8,0.1c0.2,0.1,0.3,0.3,0.3,0.6
			c0,0.3-0.2,0.6-0.4,0.7C23.2-3.9,23.3-3.8,23.4-3.7L23.4-3.7z M24.6-2.7h-0.6v-2.6h0.6V-2.7z M32-2.7h-0.9l-1.2-2v2h-1.3l-0.2-0.6
			h-1.3l-0.2,0.6h-0.7c-0.3,0-0.7-0.1-0.9-0.3c-0.2-0.3-0.4-0.6-0.3-1c0-0.4,0.1-0.7,0.3-1c0.3-0.2,0.6-0.3,0.9-0.3h0.6v0.6h-0.6
			c-0.2,0-0.4,0-0.5,0.2c-0.1,0.2-0.2,0.4-0.2,0.6c0,0.2,0,0.4,0.2,0.6c0.1,0.1,0.3,0.1,0.4,0.1h0.3l0.9-2.1h0.9l1.1,2.5v-2.5h1
			l1.1,1.8v-1.8H32L32-2.7z"/>
		<path id="Path_583" class="st0" d="M27.3-3.8h0.9l-0.4-1L27.3-3.8z"/>
		<path id="Path_584" class="st0" d="M22.7-4.7c-0.1,0-0.2-0.1-0.3,0h-0.8v0.6h0.8c0.1,0,0.2,0,0.3-0.1c0.1-0.1,0.1-0.1,0.1-0.3
			C22.9-4.6,22.8-4.7,22.7-4.7z"/>
	</g>
	<path id="Path_585" class="st0" d="M33.6,19.6h-1.1c-0.1,0-0.2,0-0.3,0c-0.1,0-0.1,0.1-0.1,0.2c0,0.1,0.1,0.2,0.1,0.2
		c0.1,0,0.2,0,0.2,0l0.3,0c0.3,0,0.5,0.1,0.7,0.2c0,0,0,0,0.1,0.1 M33.6,21.3c-0.2,0.2-0.5,0.4-0.9,0.3h-1.2v-0.6h1.2
		c0.1,0,0.2,0,0.3-0.1c0,0,0.1-0.1,0.1-0.2c0-0.1,0-0.1-0.1-0.2c-0.1,0-0.1-0.1-0.2-0.1c-0.6,0-1.3,0-1.3-0.8c0-0.4,0.2-0.8,0.9-0.8
		h1.3v-0.5h-1.2c-0.3,0-0.6,0.1-0.8,0.2v-0.2h-1.7c-0.3,0-0.5,0.1-0.8,0.2v-0.2h-3.1v0.2c-0.3-0.1-0.6-0.2-0.8-0.2h-2v0.2
		c-0.3-0.2-0.6-0.2-0.9-0.2H20L19.5,19L19,18.5h-3.4v3.7H19l0.5-0.6l0.5,0.6h2v-0.9h0.2c0.3,0,0.6,0,0.9-0.1v1h1.7v-1h0.1
		c0.1,0,0.1,0,0.1,0.1v0.8h5.1c0.3,0,0.6-0.1,0.9-0.2v0.2h1.6c0.3,0,0.6,0,0.9-0.2L33.6,21.3L33.6,21.3z M31.1,20.2
		c0.1,0.2,0.2,0.4,0.2,0.6c0,0.6-0.4,0.8-1,0.8H29v-0.6h1.2c0.1,0,0.2,0,0.3-0.1c0,0,0.1-0.1,0.1-0.2c0-0.1,0-0.1-0.1-0.2
		c-0.1,0-0.1-0.1-0.2-0.1c-0.6,0-1.3,0-1.3-0.8c0-0.4,0.2-0.8,0.9-0.8h1.3v0.6H30c-0.1,0-0.2,0-0.3,0c-0.1,0.1-0.1,0.2-0.1,0.3
		c0,0,0.1,0.1,0.1,0.1c0.1,0,0.2,0,0.2,0l0.3,0C30.6,20,30.9,20.1,31.1,20.2L31.1,20.2z M25.4,20.1c-0.1,0-0.2,0.1-0.3,0.1h-0.8
		v-0.6h0.8c0.1,0,0.2,0,0.3,0c0.1,0,0.1,0.1,0.1,0.2C25.5,19.9,25.5,20,25.4,20.1L25.4,20.1z M25.8,20.4c0.1,0,0.2,0.1,0.3,0.2
		c0.1,0.1,0.1,0.3,0.1,0.5v0.5h-0.6v-0.3c0-0.2,0-0.4-0.1-0.5c-0.1-0.1-0.3-0.1-0.5-0.1h-0.7v1h-0.6V19h1.5c0.3,0,0.5,0,0.8,0.1
		c0.2,0.1,0.3,0.3,0.3,0.6C26.2,20,26,20.3,25.8,20.4L25.8,20.4z M26.6,19h2.1v0.5h-1.5V20h1.4v0.5h-1.4v0.5l1.5,0v0.5h-2.1V19z
		 M22.3,20.2h-0.8v-0.7h0.8c0.2,0,0.4,0.1,0.4,0.3S22.6,20.2,22.3,20.2L22.3,20.2z M20.9,21.4l-1-1.1l1-1V21.4z M18.4,21.1h-1.5
		v-0.5h1.4V20h-1.4v-0.5h1.6l0.7,0.8L18.4,21.1z M23.4,19.9c0,0.7-0.5,0.9-1.1,0.9h-0.8v0.9h-1.2l-0.8-0.9l-0.8,0.9h-2.5V19h2.5
		l0.8,0.9l0.8-0.9h2C22.8,19,23.4,19.1,23.4,19.9L23.4,19.9z"/>
</g>
</svg>
