<?xml version="1.0" encoding="utf-8"?>
<!-- Generator: Adobe Illustrator 23.0.1, SVG Export Plug-In . SVG Version: 6.00 Build 0)  -->
<svg version="1.1" id="Layer_1" xmlns="http://www.w3.org/2000/svg" xmlns:xlink="http://www.w3.org/1999/xlink" x="0px" y="0px"
	 viewBox="0 0 45 45" style="enable-background:new 0 0 45 45;" xml:space="preserve">
<style type="text/css">
	.st0{fill:#FFFFFF;}
</style>
<g id="Group_925" transform="translate(0.352 -0.135)">
	<ellipse id="Ellipse_79" cx="22.1" cy="22.6" rx="22.5" ry="21.8"/>
	<path id="Path_2934" class="st0" d="M30.7,20.8L30.7,20.8l0-0.2l0-0.1c0-0.1,0-0.1,0-0.2v0c0,0,0-0.1,0-0.1c0-0.1,0-0.2,0-0.2
		l0-0.1c0-0.1,0-0.2-0.1-0.3l0-0.1c0,0,0-0.1,0-0.1l0-0.1c-0.1-0.3-0.2-0.6-0.3-0.8v0c0,0,0-0.1-0.1-0.1c-0.1-0.1-0.1-0.2-0.2-0.3
		L29.8,18c0,0,0,0,0,0c0,0,0-0.1-0.1-0.1l-0.1-0.1l0,0l0,0l-0.1-0.1c-0.1-0.2-0.3-0.4-0.5-0.6C29,16.9,29,16.9,29,16.8l-0.1-1.3
		l-0.2-1.6l0-0.1c-0.1-0.8-0.8-1.3-1.6-1.3c-0.2,0-0.4,0-0.6,0.1c-0.3,0.1-0.5,0.3-0.7,0.5c-0.2,0.3-0.3,0.6-0.3,1c0,0,0,0.1,0,0.1
		l0.1,1.9v0c0,0.2,0,0.3,0,0.5c0,0.8-0.2,1.6-0.6,2.3c-1.3,2.3-3.3,4.1-5.7,5.3l-0.2,0.1c-0.1,0-0.1,0.1-0.2,0.1l-0.2,0.1l-0.2,0.1
		c-0.1,0-0.1,0.1-0.2,0.1l-0.2,0.1c-0.1,0-0.2,0.1-0.2,0.1L17.6,25c-0.1,0-0.2,0.1-0.2,0.1l-0.2,0.1l-0.2,0.1l-0.2,0.1
		c-0.1,0-0.2,0.1-0.2,0.1c-0.1,0-0.2,0-0.2,0.1l-0.2,0.1l-0.3,0.1c-0.1,0-0.2,0-0.3,0.1c-0.1,0-0.2,0-0.3,0.1l-0.3,0.1l-0.3,0.1
		c-0.1,0-0.2,0-0.3,0c-0.1,0-0.2,0-0.3,0l-0.3,0c-0.1,0-0.2,0-0.3,0s-0.2,0-0.3,0L13,26l-0.3,0h0c-0.1,0-0.2,0-0.3,0
		c-0.1,0-0.2,0-0.2,0.1c-0.1,0-0.1,0.1-0.2,0.1c-0.1,0-0.1,0.1-0.2,0.1c-0.1,0-0.1,0.1-0.2,0.1c-0.1,0-0.1,0.1-0.2,0.2
		c-0.1,0.1-0.1,0.1-0.2,0.2c0,0.1-0.1,0.1-0.1,0.2c0,0.1-0.1,0.1-0.1,0.2c0,0.1-0.1,0.1-0.1,0.2c0,0.1,0,0.2-0.1,0.2
		c0,0.1,0,0.2,0,0.2c0,0.1,0,0.2,0,0.3c0,0.2,0.1,0.4,0.2,0.6c0,0,0,0.1,0.1,0.1l0,0c0,0.1,0.1,0.1,0.1,0.1c0,0,0.1,0.1,0.1,0.1
		c0,0,0.1,0.1,0.1,0.1c0,0,0.1,0.1,0.1,0.1c0,0,0.1,0.1,0.1,0.1c0.1,0,0.1,0.1,0.2,0.1l0.2,0.1c0,0,0,0,0.1,0c0,0,0.1,0,0.1,0
		l0.1,0.1l0.1,0.1l0.1,0.1l0.1,0.1c0.1,0,0.1,0,0.2,0.1l0.2,0.1l0.2,0.1l0.2,0.1c0.1,0,0.1,0,0.2,0.1l0.2,0.1l0.2,0.1l0.2,0.1
		c0.1,0,0.1,0,0.2,0l0.2,0c0.1,0,0.1,0,0.2,0c0.1,0,0.1,0,0.2,0c0.1,0,0.1,0,0.2,0l0.2,0l0.2,0l0.2,0.1l0.2,0c0.1,0,0.1,0,0.2,0
		c0.1,0,0.1,0,0.2,0l0.2,0l0.2,0c0.1,0,0.1,0,0.2,0l0.2,0l0.2,0c0.1,0,0.1,0,0.2,0c0.1,0,0.1,0,0.2,0l0.2,0l0.2,0l0.2,0l0.2,0H18
		h0.2h0.2c2.7,0,5.4-0.7,7.7-2.2c2.1-1.3,3.6-3.3,4.3-5.6l0,0c0,0,0-0.1,0-0.1v0l0-0.1c0-0.1,0-0.1,0-0.2l0-0.1v0c0,0,0-0.1,0-0.1
		l0-0.1c0-0.1,0-0.2,0.1-0.3c0-0.1,0-0.2,0.1-0.3c0-0.1,0-0.1,0-0.2c0,0,0,0,0-0.1c0,0,0-0.1,0-0.1l0,0c0,0,0-0.1,0-0.1v0
		c0,0,0-0.1,0-0.1c0,0,0,0,0-0.1l0,0c0,0,0-0.1,0-0.1v-0.1C30.7,21,30.7,20.9,30.7,20.8z"/>
</g>
</svg>
