<?xml version="1.0" encoding="utf-8"?>
<!-- Generator: Adobe Illustrator 23.0.1, SVG Export Plug-In . SVG Version: 6.00 Build 0)  -->
<svg version="1.1" id="Layer_1" xmlns="http://www.w3.org/2000/svg" xmlns:xlink="http://www.w3.org/1999/xlink" x="0px" y="0px"
	 viewBox="0 0 45 45" style="enable-background:new 0 0 45 45;" xml:space="preserve">
<style type="text/css">
	.st0{fill:#1A191E;}
	.st1{fill:#D3DEE5;}
</style>
<g id="Group_924" transform="translate(0.377 -0.135)">
	<ellipse id="Ellipse_78" class="st0" cx="22.1" cy="22.6" rx="22.5" ry="21.8"/>
	<g id="Group_923" transform="translate(5.317 11.049)">
		<path id="Path_2935" class="st1" d="M7,16c-0.2,0.2-0.5,0.4-0.8,0.5c-0.3,0.1-0.7,0.2-1,0.2c-0.7,0-1.4-0.2-1.9-0.7
			c-0.5-0.5-0.7-1.2-0.7-1.9V5.7h1.2v1.9h2.7v1H3.8v5.3c0,0.4,0.1,0.9,0.4,1.2c0.3,0.3,0.7,0.4,1.1,0.4c0.5,0,0.9-0.1,1.3-0.5L7,16z
			"/>
		<path id="Path_2936" class="st1" d="M9.6,16c-0.7-0.4-1.3-0.9-1.7-1.6c-0.8-1.5-0.8-3.3,0-4.8c0.4-0.7,1-1.3,1.7-1.6
			c0.8-0.4,1.6-0.6,2.5-0.6c0.8,0,1.6,0.2,2.3,0.6c0.7,0.4,1.2,0.9,1.5,1.6l-1.6,0.9c-0.2-0.4-0.6-0.7-1-0.9
			c-0.4-0.2-0.8-0.3-1.3-0.3c-0.7,0-1.4,0.3-1.9,0.8c-0.5,0.6-0.8,1.3-0.8,2.1c0,0.8,0.2,1.5,0.8,2.1c0.5,0.5,1.2,0.8,1.9,0.8
			c0.4,0,0.9-0.1,1.3-0.3c0.4-0.2,0.7-0.5,1-0.9l1.6,0.9c-0.3,0.7-0.9,1.2-1.5,1.6c-0.7,0.4-1.5,0.6-2.3,0.6
			C11.3,16.6,10.4,16.4,9.6,16z"/>
		<g id="Group_922" transform="translate(9.249 1.258)">
			<path id="Path_2937" class="st1" d="M21.2,6.3v4.8c0.1,0.8-0.2,1.6-0.6,2.3c-0.5,0.5-1.2,0.8-1.9,0.7c-0.7,0.1-1.4-0.2-1.9-0.8
				c-0.5-0.7-0.7-1.5-0.6-2.4V6.3H15v4.8c0.1,0.8-0.2,1.7-0.6,2.4c-1.1,1-2.7,1-3.8,0c-0.1-0.2-0.3-0.4-0.3-0.6l-0.6,1.4l0,0
				c0.7,0.7,1.7,1.1,2.8,1c0.7,0,1.4-0.1,1.9-0.5c0.5-0.3,1-0.8,1.2-1.4c0.2,0.6,0.7,1.1,1.2,1.4c0.6,0.3,1.3,0.5,1.9,0.4
				c1,0.1,2-0.3,2.8-1c0.7-0.9,1-1.9,0.9-3v-5H21.2z"/>
			<path id="Path_2938" class="st1" d="M11.5,6.3c0,0-0.1-0.1-0.1-0.1h-0.8c0,0-0.1,0-0.1,0.1l-1.9,4.6l-0.9,2.2l-1,2.4
				c0,0,0,0.1,0,0.1c0,0,0.1,0.1,0.1,0.1h0.8c0,0,0.1,0,0.1-0.1l0.6-1.4l0.6-1.4l2.6-6.5C11.6,6.4,11.5,6.3,11.5,6.3z"/>
		</g>
	</g>
</g>
</svg>
