<?xml version="1.0" encoding="utf-8"?>
<!-- Generator: Adobe Illustrator 23.0.1, SVG Export Plug-In . SVG Version: 6.00 Build 0)  -->
<svg version="1.1" id="Layer_1" xmlns="http://www.w3.org/2000/svg" xmlns:xlink="http://www.w3.org/1999/xlink" x="0px" y="0px"
	 viewBox="0 0 45 45" style="enable-background:new 0 0 45 45;" xml:space="preserve">
<style type="text/css">
	.st0{fill:#FFFFFF;}
</style>
<g id="Group_714" transform="translate(-433.018 -502.261)">
	<path id="Path_1" d="M455.5,547.3c-12.4,0-22.5-10.1-22.5-22.5c0-12.4,10.1-22.5,22.5-22.5s22.5,10.1,22.5,22.5l0,0
		C478,537.2,467.9,547.3,455.5,547.3z M455.5,504.2c-11.3,0-20.6,9.3-20.6,20.6c0,11.3,9.3,20.6,20.6,20.6
		c11.3,0,20.6-9.3,20.6-20.6C476.1,513.4,466.9,504.2,455.5,504.2L455.5,504.2z"/>
	<path id="Path_2" class="st0" d="M455.5,504.2c11.3,0,20.6,9.3,20.6,20.6c0,11.3-9.3,20.6-20.6,20.6c-11.3,0-20.6-9.3-20.6-20.6
		l0,0C435.1,513.4,444.2,504.2,455.5,504.2z M458.5,514.7L458.5,514.7l0.8,0.1v-0.4c0.1,0,0.3,0.1,0.4,0.1c0,0,0.1,0,0.3-0.1
		c0,0,0-0.1-0.1-0.1c0-0.1-0.1-0.1-0.1-0.3h0.1c0.1,0,0.3,0,0.3,0c0-0.1-0.1-0.1-0.1-0.3c0-0.1-0.1-0.1-0.1-0.3l0,0
		c0.1,0,0.3,0.1,0.4,0c0.1,0,0.1-0.3,0.3-0.4c0.1,0,0.5,0,0.5-0.3c0-0.4-0.3-0.1-0.5-0.3v-0.4c-0.1,0-0.3,0.1-0.4,0.1
		c-0.1,0-0.1,0-0.3,0c0-0.1,0-0.1,0-0.3c0-0.1,0.1-0.3,0.1-0.4c-0.5,0.3-0.4-0.3-0.5-0.3c-0.4,0.1-0.4,0.1-0.5-0.3
		c0-0.1-0.1-0.3-0.4-0.1c-0.1,0.1-0.3,0-0.3-0.1s-0.1-0.3-0.4-0.3c-0.3,0.1-0.3,0-0.3-0.1l-0.1-0.1c-0.1,0-0.1,0-0.3,0
		c0.1,0.3,0.1,0.3-0.1,0.4c0-0.4,0-0.5-0.3-0.5c-0.3,0-0.4,0.1-0.5,0.5c-0.4-0.1-0.4-0.1-0.5-0.1c-0.1,0.1-0.1,0.5,0,0.7
		c-0.1,0-0.1,0-0.1,0c-0.1-0.1-0.1-0.4,0-0.5s0.1-0.4,0.4-0.3h0.1c0-0.1,0.1-0.1,0.1-0.3c-0.1-0.1-0.3-0.1-0.4-0.1l0,0
		c-0.1,0.1-0.3,0.3-0.5,0.1h-0.1c-0.1,0.1-0.4,0.4-0.7,0.1h-0.1c-0.3,0-0.5,0-0.7,0.3c0,0-0.1,0-0.1,0.1c0,0,0,0-0.1,0.1
		c0.1,0,0.3,0,0.4,0c0.3,0.1,0.5,0,0.7-0.1c0.1-0.3,0.5-0.3,0.5,0c-0.1,0-0.3,0-0.4,0.1c-0.1,0.1,0,0.3,0,0.4
		c-0.1,0-0.3-0.1-0.4-0.1c-0.1,0-0.1,0.3-0.3,0.4c0-0.1-0.1-0.1-0.1-0.3s-0.1-0.1-0.3-0.3c-0.1,0.1-0.3,0.1-0.3,0.3
		c-0.1,0.3-0.1,0.5-0.3,0.8c0.4-0.1,0.5-0.1,0.7,0.3c0.1-0.1,0.4-0.1,0.5,0l0,0c0.1,0.1,0.3,0.3,0.5,0.1c0.4,0,0.5,0.1,0.5,0.5v0.1
		c0.1,0.3,0,0.5,0.3,0.8l0,0c0,0.3,0,0.5-0.1,0.8s-0.3,0.5-0.3,0.8c0.1,0,0.3,0,0.4,0c0.1,0,0.1,0,0.1-0.1c0.3-0.3,0.7-0.3,1,0
		l0.3-0.3l-0.4-0.5h0.1l0.1,0.1c0.1,0.3,0.3,0.4,0.7,0.3c0.1,0,0.1,0,0.3,0.1c0.1,0.1,0.3,0.1,0.5,0c0.3-0.1,0.1-0.3,0-0.4
		C458.6,514.9,458.6,514.7,458.5,514.7L458.5,514.7z M445.2,521.7c0.1-0.4,0.5-0.4,0.8-0.5c0.3-0.1,0.7-0.3,0.5-0.7
		c0.1,0,0.3,0,0.3,0c0-0.1,0.1-0.3,0.1-0.4c-0.1-0.3,0-0.3,0.1-0.4c0.1,0,0.3-0.1,0.1-0.3c0,0,0,0,0-0.1v-0.1h0.1c0-0.1,0-0.3,0-0.3
		v-0.1c0.1-0.1,0.1-0.1,0-0.3l-0.1-0.1l0.1-0.1c0.1-0.1,0.1-0.3,0.3-0.4c0,0-0.1-0.1-0.3-0.1c-0.1-0.1-0.3-0.3-0.4-0.4
		c-0.1-0.3-0.3-0.3-0.5-0.1c0,0-0.1,0.1-0.1,0.3c-0.1-0.1,0-0.4-0.3-0.3c-0.1,0-0.3,0.3-0.4,0.4c0-0.1-0.1-0.1-0.1-0.3l-0.1-0.1
		c-0.1,0-0.1,0.1-0.3,0.1c0,0.1-0.1,0.1-0.1,0.3c-0.1,0-0.1-0.1-0.1-0.1c-0.3-0.1-0.4-0.1-0.5,0.3c0,0.1,0,0.3-0.1,0.4
		c-0.1,0-0.1,0-0.3-0.1c-0.1,0-0.3,0-0.3,0s0,0.1,0,0.3c0,0.1,0,0.3,0.1,0.4l0,0c-0.1-0.1-0.1-0.1-0.3-0.3c0-0.1-0.1-0.1-0.3,0
		l-0.1,0.1v0.1h-0.1c-0.3,0-0.4,0-0.4,0.1c0,0.3,0.1,0.3,0.3,0.4c0,0,0.1,0,0.1,0.1c-0.1,0-0.1,0.1-0.3,0.1s-0.3,0.1-0.4,0.1
		c-0.1,0-0.1,0.3-0.1,0.3c0.1,0.1,0.1,0.1,0.3,0.1s0.3,0,0.3,0.1v0.1c-0.1,0-0.1,0-0.3,0s-0.1,0.1-0.3,0.1c0,0.1,0.1,0.1,0.1,0.3
		c0.1,0,0.1,0.1,0.3,0.1c-0.1,0-0.3,0.1-0.4,0.1c0,0-0.1,0.1-0.1,0.3l0.1,0.1c0.1,0,0.3,0,0.4,0.1l-0.1,0.1c0,0.1-0.1,0.1-0.1,0.3
		c0.1,0,0.3,0.1,0.4,0.1c0.1,0,0.1,0,0.3,0c0,0,0,0,0,0.1c0,0.1-0.1,0.4,0.1,0.5c0.1,0.1,0.4,0.1,0.5-0.1h0.1c0.1,0,0.1-0.1,0.3-0.1
		c-0.3-0.1-0.4-0.3-0.4-0.4c0,0,0-0.1,0.1-0.3c0.1,0.5,0.1,0.5,0.5,0.3c0.1,0,0.3-0.1,0.5,0C444.9,521.7,445,521.7,445.2,521.7
		l-0.1,0.3v-0.1c0-0.1-0.1-0.3-0.1-0.3c-0.1,0-0.1,0-0.3,0.1c0,0.1,0,0.3,0,0.3c0,0.1,0.1,0.1,0.1,0.3v0.1c-0.1,0-0.3,0-0.4-0.1
		c-0.1,0-0.1,0-0.3,0c0,0.1,0,0.1,0,0.3l0.1,0.1c-0.1,0-0.1,0-0.3,0c-0.1-0.1-0.3-0.1-0.4,0c-0.1,0.1-0.1,0.3,0,0.4l0,0
		c0,0.1,0.1,0.1,0.1,0.3h-0.1c-0.1,0-0.4,0-0.4,0.1c0,0.1,0,0.4,0.3,0.4c0,0,0.1,0,0.1,0.1l-0.3,0.3l0.3,0.1c0.3-0.3,0.4-0.7,0.1-1
		c0,0,0,0,0-0.1c0-0.1,0.1-0.3,0.1-0.3h0.1c-0.3,0.4-0.1,0.7,0.4,1c-0.4,0-0.5,0.1-0.5,0.4c0,0.1,0.3,0.1,0.4,0.3
		c0,0.1,0,0.4,0.1,0.5c0.3,0.3,0.7,0.1,1,0c0,0.1-0.1,0.4-0.4,0.3l0,0c-0.4,0-0.8-0.3-0.8-0.5l0,0c0,0,0-0.1-0.1-0.1
		c-0.1-0.1-0.3-0.1-0.4-0.3l-0.1,1.1c0.4,0,0.4,0.1,0.5,0.4c0,0.1,0.1,0.3,0.4,0.1c0.1-0.1,0.3,0,0.3,0.1s0.1,0.4,0.4,0.3
		c0,0,0,0,0.1,0c0.3,0,0.4,0,0.4,0.3c0.1,0.1,0.4,0.3,0.5,0.1c0,0,0,0,0.1-0.1s0.3-0.1,0.4-0.1c0.3,0.1,0.5,0,0.7-0.1c0,0,0,0,0-0.1
		s0-0.1,0-0.3c-0.1,0-0.1,0-0.3,0.1c-0.1,0.1-0.4,0.1-0.5-0.1c-0.1-0.1-0.1-0.3-0.3-0.4h0.1c0.1,0.1,0.1,0.4,0.4,0.4
		c0.3,0,0.3-0.3,0.4-0.4l0.3,0.3c0-0.1,0.1-0.1,0.1-0.3c0,0,0.1-0.1,0.3-0.1s0.3-0.1,0.3-0.3l-0.4-0.3v-0.1c0.3,0.1,0.5,0.1,0.7-0.3
		c0.1-0.3-0.3-0.3-0.4-0.5c0.3,0,0.4,0.1,0.5,0.3c0,0.1,0,0.3-0.1,0.4c-0.1,0.1-0.3,0.3-0.3,0.5c0,0.1-0.1,0.1-0.1,0.3
		c-0.1,0.1-0.3,0.3-0.5,0.4c0.3,0.3,0.3-0.1,0.3-0.1c0.3,0,0.4,0,0.5-0.1c0.1-0.1,0.1-0.3,0.3-0.4h0.3c0-0.1-0.1-0.1-0.1-0.3
		c-0.1-0.1-0.1-0.1,0-0.3h0.1l0.1-0.1l-0.1-0.1c0,0-0.1,0-0.3-0.1c-0.1-0.1-0.1-0.1,0-0.3c0.1-0.1,0.1-0.3,0-0.4
		c-0.1,0-0.1-0.1-0.3-0.1l0,0c0.1-0.1,0.1-0.1,0.3-0.3c0.1-0.1,0.1-0.3-0.1-0.4c-0.1,0-0.3,0-0.3-0.1c-0.1-0.1,0.1-0.4-0.1-0.4
		c-0.1,0-0.4,0-0.5,0.1l0.1-0.5h-0.5l0.1-0.5l0,0l-0.4,0.3c-0.1-0.3,0.3-0.4,0-0.7l-0.7,0.4c-0.5-0.4-0.8-0.4-1.1,0.1L445.2,521.7z
		 M467.8,515.5L467.8,515.5l-0.5,0.8l0.3,0.1c0-0.1,0-0.1,0.1-0.3c0.4,0,0.1-0.1,0.1-0.4c0.3,0,0.3-0.5,0.7-0.5c0-0.1,0-0.1,0-0.3
		c0-0.1-0.1-0.3-0.3-0.4c0.1,0,0.3,0.1,0.4,0.1c0.1,0,0.1-0.1,0.3-0.1l-0.1-0.1c-0.1,0-0.1-0.1-0.3-0.1c0.3-0.4,0.1-0.4-0.1-0.5
		c-0.3-0.1-0.7-0.1-0.8,0.1l0,0l-0.1-0.7l-0.4,0.1l-0.1-0.1c0-0.4,0-0.4-0.4-0.3c-0.1,0-0.1,0-0.3,0c0,0,0-0.1,0-0.3
		c0,0,0-0.1,0.1-0.1c-0.1-0.1-0.3-0.3-0.4-0.1c-0.1,0-0.1,0-0.3,0c-0.1-0.3-0.3-0.3-0.5-0.1c-0.1,0-0.1,0-0.3,0
		c-0.1-0.1-0.3,0-0.4,0l0,0l-0.1,0.1l-0.4-0.3l-0.4,0.4l-0.1-0.1c-0.1-0.3-0.1-0.3-0.4,0c-0.1,0.1-0.1,0-0.3,0c0,0,0-0.1,0-0.3
		c-0.1,0.1-0.1,0.1-0.3,0.3l-0.1,0.1c-0.3-0.1-0.4,0-0.5,0.3c-0.1,0.1-0.3,0.3-0.4,0.4c-0.3,0.1-0.4,0.3-0.5,0.5
		c-0.1,0.4-0.3,0.8-0.8,1l0,0l-0.7,0.4c0,0.3,0.1,0.3,0.4,0.1c0.4-0.3,0.5-0.1,0.7,0.1c0.3,0,0.4,0,0.7,0c0.1,0,0.3,0.1,0.3,0.3l0,0
		c0,0.1,0.1,0.3,0.3,0.3c0.1,0,0.4,0.1,0.3,0.4c0.1,0,0.4,0.3,0.5,0.1c0.3-0.1,0.5,0,0.8,0.1h0.1c0.3-0.1,0.5-0.3,0.8-0.3h0.7
		c0-0.3,0.3-0.3,0.4-0.1c0.3,0.1,0.5,0.1,0.8,0.4c0,0,0.1,0.1,0.1,0c0.3-0.3,0.4-0.1,0.5,0.1c0.1,0.1,0.3,0.1,0.3,0
		c0.1-0.3,0.1-0.3,0.4-0.1c0.1,0.1,0.3,0.1,0.4-0.1c-0.4,0.1-0.5,0-0.5-0.3l0,0l-0.4-0.3c-0.1,0.3-0.5,0.4-0.8,0.3
		c-0.1-0.1-0.3-0.3-0.1-0.4c0.1,0.3,0.3,0.4,0.5,0.4c0.1-0.1,0.4-0.3,0.5-0.4c0.1,0.3,0.1,0.5,0.5,0.3c0.3-0.1,0.1-0.3,0.1-0.4
		L467.8,515.5z M454.1,530.1L454.1,530.1c-0.3-0.4-0.4-0.7-0.5-1.1c-0.3-0.8-0.8-1.5-1.4-2.2c-0.1-0.3-0.5-0.3-0.8-0.1l0,0
		c-0.1,0.1-0.4,0.1-0.5,0.3c-0.1,0-0.1,0-0.3,0v0.1c0.1,0.1,0.3,0.3,0.5,0.3c0.5,0.1,1.1,0.7,1.2,1.2c0.3,0.7,0.4,1.5,0.5,2.3
		c0,0.1,0,0.4,0,0.5h-0.1c-0.3-1-0.7-1.8-1.1-2.6l-1,0.4c0.1,0.3,0.3,0.7,0.4,1c0.3,0.5,0.4,1.1,0.5,1.6c0,0.5,0.3,1.1,0.3,1.5
		c0,0.3,0,0.5,0.1,1c0.1,0.8,0.3,1.5,0.4,2.3c0.1,1,0.3,1.8,0.5,2.7c0,0.3,0.3,0.7,0.7,0.7c0.3,0,0.4,0,0.4-0.3c0-0.1,0-0.3,0-0.5
		c0.1,0.1,0.1,0.4,0.1,0.7c-0.1,0.5,0.7,1.1,1.4,0.8c0.4-0.1,0.7-0.1,1.1-0.1c0.7,0,1.1-0.1,1-0.8c0-0.1,0-0.3,0-0.4l0,0
		c0,0,0.1,0.1,0.1,0.3c0,0.3,0,0.4,0.1,0.7c0.1,0.3,0.1,0.3,0.4,0.3c0.1,0,0.3,0,0.4-0.1c0.3-0.1,0.7-0.3,0.7-0.7c0-0.5,0-1.2,0-1.8
		v-0.1c-0.3-0.1-0.5-0.3-0.8-0.4c-0.1,0-0.3,0.1-0.4,0.1h-0.1v-0.1c0-0.1,0.1-0.1,0.1-0.3c0-0.1,0.3-0.4,0.4-0.4
		c0.1-0.1,0.3-0.1,0.4-0.3c0.1-0.1,0.3-0.3,0.5-0.4c0.1-0.1,0.3-0.3,0.3-0.4c0.3-1,0.4-1.9,0.7-2.9c0.1-0.5,0.3-1.2,0.4-1.9
		c0-0.3,0.1-0.4,0.1-0.7c0.1-0.3,0.3-0.5,0.3-0.7c-0.4-0.3-0.8-0.4-1.2,0c0,0-0.1,0-0.3,0.1h-0.1c0.1-0.3,0.1-0.5,0.3-0.7
		c0.3-0.4,0.4-0.8,1-0.8c0.3,0,0.5-0.3,0.5-0.5c0-0.1-0.3-0.5-0.5-0.5c-0.3,0-0.5-0.1-0.8-0.4c-0.1-0.1-0.3-0.1-0.4,0
		c-0.3,0.4-0.4,1-0.4,1.5c-0.1,1-0.3,1.8-0.3,2.7c0,0.1,0,0.1,0,0.1c-0.1-0.5-0.3-1-0.3-1.5c0-1.1,0-2-0.1-3.1c0-0.1,0-0.1-0.1-0.3
		c-0.1,0-0.1,0-0.3,0.1c-0.1,0-0.1,0.1-0.3,0.3c-0.3,0-0.5,0-0.8,0c-0.1,0-0.3,0-0.4,0c0.5,2,0.7,4.2,0.7,6.3c0-0.3-0.1-0.4-0.1-0.7
		c-0.1-0.8-0.3-1.5-0.3-2.3c0-0.1,0-0.4-0.1-0.5c-0.3-0.7-0.4-1.4-0.7-2c-0.1-0.3-0.3-0.4-0.5-0.5c-0.1,0-0.3-0.1-0.3-0.3
		c-0.1-0.1-0.3-0.3-0.4-0.4h-0.1c0,0.3,0,0.4,0,0.7c0,0.7,0,1.4,0,2c0,0.4,0,0.8,0.1,1.2c0.1,0.8,0.3,1.6,0.3,2.3
		c0.1,0.7,0.3,1.4,0.3,2.2c0,0.4,0.1,0.8,0.1,1.4c-0.1,0-0.1,0-0.1,0c0-0.1,0-0.3-0.1-0.5c-0.1-1.1-0.3-2.2-0.4-3.3
		c-0.1-0.8-0.3-1.6-0.4-2.6c-0.3-1.1-0.5-2.2-0.7-3.3c-0.1-0.3,0-0.7-0.4-1l-1.2,1C453.5,527.4,453.9,528.7,454.1,530.1L454.1,530.1
		z M448.4,518.8C448.6,518.8,448.4,518.8,448.4,518.8c-0.1-0.1-0.4-0.1-0.5,0.1l0,0h-0.1c-0.3,0-0.3,0.1-0.1,0.3
		c0.1,0.3,0,0.5-0.3,0.5l-0.1,0.1c0,0.3,0,0.4-0.3,0.5v0.1l-0.1,0.4c0.1,0.1,0.4,0.1,0.4,0.3c0,0.3,0.3,0.3,0.4,0.4l0,0
		c0,0.1,0,0.3,0.1,0.3l0,0c0,0,0,0.1,0.1,0.1c0.1,0.1,0.1,0.1,0.3,0.3l0.1,0.1c0,0.3,0.3,0.3,0.4,0.4c0.3,0.1,0.4,0.3,0.1,0.5
		c0,0.1,0,0.1,0,0.3c0.1,0.3,0.3,0.4,0,0.7c0.4,0.3,0.5,0.4,0.3,0.8c0.3,0.4,0.3,0.5,0,0.7c0.1,0.1,0.4,0.3,0.5,0.4
		c0.1,0,0.3,0,0.3,0c0.1-0.1,0.1-0.1,0.3,0c0.1,0,0.4,0,0.5,0s0.1-0.1,0.1-0.3c-0.3,0-0.5,0-0.7-0.3c0-0.1-0.1-0.3-0.1-0.4h0.1
		c0.3,0.5,0.3,0.5,0.8,0.1v0.3l0.3-0.5c0.1,0.1,0.1,0.3,0.3,0.4c0.1,0,0.3,0.1,0.3,0.1c0.1-0.1,0.1-0.1,0.1-0.3c0-0.1,0-0.1,0-0.3
		v0.1c0.1,0,0.3,0,0.4-0.1v-0.3c-0.1-0.1-0.3-0.1-0.4-0.1l0,0c-0.1,0.1-0.3,0.1-0.4,0.3c-0.1,0-0.3,0-0.4,0c-0.1,0-0.3,0-0.4,0
		c-0.3,0.1-0.4,0-0.7-0.1c-0.1-0.1-0.1-0.3,0-0.3c0,0,0,0,0.1,0c0.1,0.5,0.3,0.5,0.7,0.3h0.1c0.1,0.1,0.3,0.1,0.4,0.1l0,0
		c0.1,0,0.1-0.1,0.3-0.1c0,0,0.1-0.1,0.1-0.3l0,0c-0.1,0.1-0.4,0-0.5-0.1c0,0-0.1,0-0.3,0s-0.3,0-0.4,0c-0.3,0-0.4-0.3-0.4-0.5v-0.1
		l0.1,0.1c0,0.1,0.1,0.3,0.3,0.3s0.3-0.1,0.4-0.1c0,0,0.1,0,0.1-0.1c0,0.1,0.1,0.3,0.3,0.4c0,0,0.1-0.1,0.3-0.1c0.1,0,0.1-0.1,0.3,0
		c0.1,0,0.1,0.1,0.1,0.3c0,0.1,0,0.1,0,0.3c0.4,0,0.3-0.3,0.3-0.4c0.1,0,0.1,0,0.3,0s0.1,0,0.1-0.1c0-0.1,0-0.4,0-0.4
		c-0.1-0.1-0.3-0.3-0.5-0.1c-0.3,0.1-0.5,0-0.7-0.1v-0.1c0.3,0.3,0.5,0.3,0.8,0.1l-0.1-0.3l0.5-0.1l-0.1-0.3
		c0.1-0.1,0.3-0.3,0.4-0.4c0-0.1-0.1-0.3-0.1-0.4c0.1,0,0.3,0.1,0.3,0.1c0,0.1,0,0.3,0,0.4c0,0,0,0.1-0.1,0.1c0,0.3-0.3,0.5-0.7,0.5
		c0.1,0.4,0.1,0.4,0.5,0.3c0.1,0,0.3-0.1,0.4,0c0.1,0,0.3,0,0.3,0c0-0.3,0.1-0.3,0.4-0.3l0.1-0.1c0-0.1,0.1-0.3,0-0.3
		c-0.1-0.1-0.3-0.1-0.4-0.3c0.1-0.1,0.5,0,0.4-0.5h-0.5l0.5-0.4c-0.1-0.5-0.4,0-0.7-0.1c0.1-0.1,0.1-0.3,0.3-0.3
		c0.1-0.1,0.1-0.3,0-0.4c-0.1,0-0.3,0-0.4,0c-0.1,0-0.1,0.1-0.3,0.3c0-0.1,0.1-0.4,0.3-0.4h0.1c0.3,0,0.5,0.3,0.5,0.7
		c0.3,0.1,0.3,0.1,0.3,0.4v0.1c0,0.1,0,0.3,0,0.5c0,0.1,0,0.3,0.1,0.3s0.3-0.1,0.3-0.1c0.1-0.1,0.1-0.3,0.3-0.1c0.1,0,0.1,0,0.3,0
		c0-0.1,0-0.1,0-0.3c-0.1-0.1-0.3-0.1-0.4-0.3c0-0.1,0.1-0.3,0.1-0.3s-0.1-0.1-0.3-0.3l-0.1-0.1l0.3-0.3c-0.1-0.4-0.4-0.3-0.7-0.4
		v-0.1c0-0.1,0-0.1,0-0.3c-0.1,0-0.1,0-0.3,0s-0.3,0.1-0.3,0.1h-0.1c0.1-0.1,0.1-0.3,0.3-0.4c0-0.1,0-0.1,0-0.3c-0.1,0-0.1,0-0.3,0
		l-0.1,0.1h-0.1c0.1-0.1,0.1-0.3,0.1-0.4s0-0.3,0-0.4c-0.1,0-0.1,0-0.3,0c0,0-0.1,0-0.3,0l0.1-0.7c-0.4-0.1-0.4,0.3-0.7,0.3
		c-0.1-0.1-0.3-0.3-0.4-0.3c-0.1,0-0.3,0.1-0.4,0.3v-0.1v-0.1c0-0.3-0.1-0.3-0.3-0.3s-0.3,0-0.3,0c-0.3-0.1-0.4,0-0.5,0
		c-0.3,0-0.3,0.3-0.3,0.4c-0.1-0.1-0.3-0.4-0.4-0.4s-0.3,0.1-0.4,0.1c-0.1-0.1-0.3-0.1-0.4-0.1c-0.1,0-0.4,0.1-0.5,0.3l0.1-0.3h-0.3
		v-0.3c0.1,0,0.1,0.1,0.3,0.1s0.3,0,0.4,0c0.1,0,0.3-0.1,0.1-0.4c-0.1-0.1,0-0.3,0.1-0.4c0,0,0,0,0.1,0c0,0.1,0,0.1,0,0.3
		c0,0.1,0.1,0.1,0.1,0.1c0.1,0,0.4,0,0.5,0.1c0.1,0,0.3,0,0.4-0.1c0.1,0,0.1-0.1,0.1-0.3l-0.4-0.4c0.1,0,0.1,0,0.3,0.1
		s0.4,0.3,0.5,0l0.1-0.1c0.1,0.1,0.5,0.1,0.7,0c0,0,0,0,0.1,0c0.1,0.1,0.3,0,0.4-0.1l-0.3-0.3c0.4,0,0.5-0.1,0.7-0.4
		c0.1-0.3,0.1-0.3-0.1-0.3c-0.1,0-0.1,0-0.3,0v-0.1c0.1,0,0.3,0,0.4,0c0.3,0,0.3,0.1,0.1,0.4s-0.1,0.4-0.4,0.4l-0.1,0.1
		c0,0,0,0,0.1,0.1s0.1,0,0.1,0c0.3,0.1,0.5,0,0.7-0.3v-0.1c0-0.3-0.1-0.5-0.3-0.5c0.1,0,0.4,0,0.4,0c0.1-0.1,0.3-0.3,0.4-0.4v-0.1
		c0-0.1-0.1-0.1-0.1-0.3l0.5,0.1l-0.1-0.4l0.4-0.3c-0.1-0.1-0.4-0.4,0-0.5c-0.1,0-0.1-0.1-0.1-0.1c-0.3-0.1-0.3-0.3-0.1-0.4
		c0-0.1,0.1-0.1,0.1-0.3h-0.4c0.1-0.3,0.4-0.3,0.3-0.5c-0.3-0.3-0.4,0.1-0.7,0.1v-0.3l-0.4,0.1v-0.5l-0.3,0.1c-0.1,0-0.1,0.3-0.3,0
		c0-0.1,0-0.1,0-0.3l0,0l0,0l-0.7,0.3v-0.1c-0.3,0-0.5-0.3-0.8,0l-0.1-0.1c0-0.1-0.1-0.1-0.3,0l0,0c-0.1,0.3-0.3,0.1-0.4,0l-0.1-0.1
		l-0.5,0.5l-0.1-0.3l-0.3,0.3c-0.1,0-0.3-0.1-0.3-0.1c-0.1,0-0.1,0.1-0.1,0.3c0,0.1,0,0.1,0,0.3c-0.1,0-0.4-0.1-0.4-0.1
		c-0.1,0.1-0.1,0.3-0.3,0.4c-0.1,0-0.4-0.1-0.5-0.1c-0.3,0.1-0.1,0.4,0,0.5c-0.4-0.1-0.4,0-0.5,0.4c-0.3,0-0.4-0.1-0.7,0.1
		c-0.1,0.3,0,0.4,0.1,0.5c-0.3,0-0.4,0-0.4,0.3c0,0.1,0.1,0.3,0.3,0.4c-0.3,0-0.5,0-0.5,0.3c0,0.3,0.3,0.3,0.5,0.4
		c-0.1,0.1-0.3,0.1-0.4,0.3c0,0.1,0.1,0.3,0.1,0.4c-0.3,0-0.4,0-0.3,0.3c0,0.3,0.1,0.3,0.7,0.1c0.1,0.3,0.3,0.4,0.5,0.3h0.1v0.1
		l-0.1,0.1c0.1,0.3,0.3,0.3,0.5,0.1l0.4,0.3l0,0c-0.1,0-0.3,0-0.3,0c-0.1,0-0.3,0.1-0.4,0.1C448.4,518.4,448.4,518.7,448.4,518.8z
		 M461.2,517.6c0.1,0,0.1,0,0.3,0c0.7,0.1,0.1,0.5,0.3,1c0,0,0,0.1-0.1,0.3l-0.1,0.1c0,0-0.1,0.1,0,0.1c0.1,0.3,0,0.4-0.1,0.5
		c0.1,0.1,0.3,0.4,0,0.7c0,0,0,0-0.1,0c-0.1,0.1-0.4,0.3-0.4,0.5c0,0.1-0.1,0.3-0.3,0.3c-0.1,0.1-0.4,0.3-0.7,0.5
		c0.1,0,0.3,0.1,0.4,0.1c0.1-0.1,0.3-0.3,0.5-0.4l0,0c0.1,0.1,0.1,0.1,0.4,0.1c0.1,0,0.3-0.3,0.1-0.4c0-0.1,0-0.1,0.1-0.3
		c0.1,0,0.3-0.1,0.1-0.3l0,0v-0.1c0.3,0,0.3-0.3,0.1-0.4l0.4-0.3c-0.3-0.1-0.4-0.3-0.3-0.5c0.1-0.1,0.1-0.4,0.1-0.5h-0.3
		c0.1-0.1,0.1-0.1,0.3-0.1c0.1-0.1,0.1-0.3,0.1-0.4c0-0.1-0.1-0.1-0.3-0.1c0,0-0.1,0-0.1-0.1l0.3-0.3h-0.4c0,0,0,0,0-0.1
		s0-0.3,0-0.4c-0.1,0-0.3,0-0.4,0c-0.1,0-0.1,0-0.3,0c0,0,0.1-0.1,0.1-0.3c0-0.1,0-0.3,0-0.4c-0.1,0-0.3,0-0.4,0s-0.1,0.1-0.3,0.1
		l0,0c0.1-0.1,0.1-0.1,0.3-0.3c0.1-0.1,0.1-0.3,0-0.4c-0.1-0.1-0.3-0.1-0.5-0.1c-0.1,0.1-0.4,0.1-0.5,0.3c0-0.1,0-0.1,0-0.3
		c0-0.1,0-0.1,0-0.3c-0.1,0-0.3,0-0.3,0.1c-0.1,0.1-0.1,0.3-0.3,0.4l-0.4-0.5h-0.1l-0.3,0.7c0-0.1-0.1-0.3-0.1-0.4
		c0-0.3-0.1-0.3-0.3-0.1c-0.1,0.1-0.3,0.4-0.4,0.5c0-0.1,0-0.3,0-0.3c0-0.1,0-0.3-0.1-0.3c-0.1,0-0.1,0-0.3,0.1s-0.1,0.1-0.1,0.3
		c-0.1-0.1-0.1-0.1-0.1-0.3c-0.1-0.1-0.3-0.3-0.4-0.1l-0.1,0.1c0,0,0,0.1-0.1,0.1c-0.1,0.1-0.1,0.1-0.3,0s-0.1-0.1-0.3,0v0.1
		c0,0.1,0,0.3,0,0.4c-0.3,0-0.4,0-0.5,0.3c0,0-0.1,0-0.3,0.1c-0.1,0-0.1,0.1-0.3,0.1l0.5,0.1c-0.3,0-0.4,0.1-0.7,0.3
		c-0.1,0.1-0.1,0.3,0,0.4c0.1,0,0.1,0.1,0.3,0.1c-0.3,0.1-0.5-0.1-0.7,0.1l0.1,0.3h-0.4l0.1,0.1c0.1,0.3,0.3,0.5,0.4,0.7
		c0.1,0.1,0.1,0.5,0.4,0.5c-0.1,0.3,0.1,0.4,0.3,0.7c0.1,0.1,0.3,0.3,0.4,0.3c0.1,0,0.3,0.1,0.4,0.3c0,0.1,0,0.3,0,0.5
		c0.1,0.1,0.3,0.1,0.1,0.4v0.1c0.3,0.4,0.3,0.4,0,0.7c0.3,0.3,0.1,0.4-0.1,0.5l0,0c-0.1,0-0.3,0.3-0.3,0.4c0,0.3-0.3,0.5-0.5,0.5
		c-0.3,0-0.3,0.1-0.3,0.3c0,0.1,0.1,0.3,0.3,0.3s0.3,0,0.4-0.1c0,0.1,0,0.4,0,0.4c0.1,0.1,0.3,0.1,0.5,0.1c0,0.3,0.3,0.3,0.4,0.3
		c0.3,0,0.5-0.3,0.5-0.5c0,0.3,0,0.4-0.3,0.5c-0.1,0.1-0.3,0.3-0.4,0.4c0.5,0.3,0.5,0.3,0.8-0.1c0.5,0.3,0.5,0.3,0.8-0.1h0.1
		c0.4,0,0.4,0,0.4-0.4c0-0.1,0.1-0.3,0.1-0.4s0.1-0.1,0.1-0.3c0-0.3-0.1-0.5-0.1-0.8c0-0.1-0.1-0.1-0.3-0.3c-0.1-0.1-0.1-0.4,0-0.5
		l0,0c0.3-0.1,0.5-0.4,0.7-0.5l0,0c0.3,0,0.3-0.3,0.4-0.4c-0.3,0-0.5,0.1-0.8,0.1c-0.1,0-0.3,0-0.3,0.1c-0.4,0.1-0.8,0.1-1.4,0.1
		l0,0c-0.3,0.1-0.4,0-0.7-0.1c-0.1-0.1-0.1-0.3,0-0.4c0.1,0.1,0.1,0.1,0.3,0.3l0.1,0.1l0.1-0.1v-0.1c0.1,0.1,0.3,0.1,0.4,0.3
		c0.1,0.1,0.3,0.1,0.4-0.1c0.1-0.3,0.3-0.3,0.4,0c0.1,0.1,0.3,0.1,0.4,0l0.1-0.1c0-0.1,0.1-0.1,0.1-0.3c0.1,0.1,0.4,0.1,0.7,0l0,0
		c-0.1-0.1-0.3-0.1-0.4-0.1c-0.1,0.1-0.4,0-0.4-0.1c-0.1-0.1-0.3-0.3-0.1-0.5l0,0c0,0.1,0,0.4,0.1,0.5c0.3,0.3,0.4-0.1,0.7-0.3
		c0,0,0,0.1,0.1,0.1c0.1,0,0.3,0.1,0.3,0c0.1-0.1,0.1-0.3,0.4-0.1c0,0,0.1,0,0.1-0.1s0-0.3,0-0.4c-0.1-0.1-0.3-0.1-0.4-0.1
		c-0.4,0.1-1,0-1.1-0.4c0.1,0.1,0.4,0.3,0.7,0.4c0.3,0,0.4,0,0.7-0.1V520l0.4,0.3l0.4-0.4c0.1,0,0.1-0.1,0.1-0.1
		c0-0.1,0-0.3-0.1-0.3c-0.1,0-0.1,0-0.3,0c-0.3,0.1-0.5,0-0.7-0.1l0,0c0.3,0.3,0.4,0.3,0.7,0c0.1,0,0.1-0.1,0.3-0.1
		c0.3,0,0.4,0,0.3-0.3c0-0.1,0-0.3,0.1-0.3c0.3-0.1,0.3-0.3,0-0.4c0,0,0,0-0.1-0.1c0.1-0.1,0.3-0.3,0.3-0.4
		C461.8,517.6,461.4,517.9,461.2,517.6z M463.4,517.3L463.4,517.3L463,517l-0.1,0.3c-0.1-0.4-0.3-0.4-0.5-0.4l-0.1,0.1
		c0,0.1,0,0.1,0,0.3c0.1,0.1,0.1,0.3,0.3,0.4l0,0c0.3,0.1,0.3,0.1,0.3,0.5c0,0.1,0,0.3,0,0.4v0.1c-0.1,0.3-0.3,0.5-0.1,0.8
		c0,0.1,0,0.1,0,0.3c-0.1,0.3-0.1,0.7-0.4,0.8l0,0c0,0.1-0.1,0.3-0.1,0.3c-0.1,0-0.3,0.3-0.1,0.4c0,0.1,0,0.3-0.3,0.3l0,0
		c-0.3,0-0.7,0.1-0.8,0.4c-0.1,0-0.1,0.1-0.3,0.1c-0.3,0-0.3,0.1-0.1,0.4v0.1c-0.3-0.1-0.4-0.3-0.7,0c0,0,0,0.1,0.1,0.3
		c-0.1,0-0.3,0-0.4,0c-0.1,0-0.1,0-0.3,0.1s-0.1,0.4,0,0.5c0,0,0.1,0,0.1,0.1c0.1,0,0.3,0.1,0.4,0.1c-0.1,0.1-0.4,0.3-0.3,0.4
		c0.1,0.1,0.3,0.1,0.5,0.3l-0.4,0.1l0.3,0.4c-0.1,0-0.3,0-0.4,0c-0.1,0-0.1,0.1-0.1,0.1v0.1c0.1,0,0.3,0.3,0.4,0.1
		c0.1-0.1,0.3,0.1,0.1,0.3v0.1c0.1,0,0.1,0.1,0.3,0.1c0.3,0,0.4,0.1,0.5,0.3c0.1,0.1,0.3,0.1,0.3,0l0,0c0.1-0.1,0-0.1-0.1-0.3
		c-0.1-0.1-0.1-0.3-0.3-0.4l0.1-0.1h0.1c0,0.1-0.1,0.3-0.1,0.3c0.1,0.1,0.3,0.1,0.3,0.1c0.1,0,0.3,0,0.3,0c-0.1,0.3-0.1,0.4,0,0.5
		c0.1,0,0.3,0,0.5,0v0.1l-0.5,0.1c0.1,0.1,0.5,0.1,0.7,0l0,0c0.1,0.1,0.3,0.5,0.5,0.3c0-0.4-0.1-0.8-0.4-1.1c-0.1-0.1,0-0.4,0.3-0.4
		v0.1c-0.1,0.1-0.1,0.4,0,0.5c0.1,0.1,0.4,0.1,0.5,0l0,0h0.1c0.3,0.1,0.5,0,1,0c0.3,0,0.3-0.1,0.1-0.4c-0.3,0.1-0.5,0-0.7-0.3
		c0-0.1,0-0.1,0-0.3c0.1,0.1,0.1,0.3,0.3,0.4c0.1,0.1,0.3,0,0.4-0.1c0,0,0.1,0,0.3,0s0.1,0.1,0.1,0.1c0.1,0,0.3,0,0.4-0.1
		c0.1-0.1,0-0.1,0-0.3v-0.1c0.1,0,0.1-0.1,0.3-0.1l-0.1-0.1v-0.1c0.1,0,0.1-0.1,0.1-0.3c-0.1-0.1-0.1-0.3-0.3-0.4l0,0
		c0.1,0,0.3,0,0.4,0c0.1,0,0.1-0.3,0.1-0.4c0,0,0-0.1,0.1-0.1c0,0,0.1,0,0.1,0.1c0,0,0,0.1,0.1,0.3c0.4-0.1,0.4-0.4,0.4-0.7
		c0.1,0.1,0.1,0.3,0.1,0.4c0,0.3-0.1,0.4-0.4,0.4c-0.3,0.1-0.4,0.1-0.7,0.3l0.3,0.7l1-0.4c-0.1-0.1,0-0.3,0.1-0.4l0,0
		c0.1,0,0.1-0.1,0.1-0.3c0,0,0,0,0-0.1c0,0-0.1-0.1-0.1-0.3c0.1,0,0.1,0,0.3,0s0.1,0,0.3,0c0-0.1,0-0.3-0.1-0.3
		c0-0.1-0.1-0.1-0.1-0.1l0.3-0.3c-0.1-0.1-0.1-0.1-0.3-0.3c-0.1,0-0.1,0-0.3,0h-0.1l0,0c0.1,0,0.3-0.1,0.3-0.1
		c0.3-0.1,0.3-0.3,0-0.4l-0.1-0.1c0.1,0,0.1,0,0.3-0.1c0.1,0,0.1-0.1,0.1-0.1l-0.1-0.1c-0.3,0-0.7-0.1-1-0.1c0,0,0,0-0.1,0
		c-0.3,0.1-0.5,0.1-0.7-0.1c-0.3,0.1-0.5,0.3-0.8-0.1c0,0-0.1-0.1-0.3,0c-0.3,0.1-0.5-0.1-0.7-0.3c-0.1-0.1,0-0.3,0.1-0.4
		c-0.1,0.3,0,0.5,0.3,0.5c0.3,0.1,0.4,0,0.5-0.3c0,0.1,0.1,0.1,0.1,0.3c0,0.3,0,0.3,0.3,0.3c0.1,0,0.3-0.1,0.4-0.3
		c0.1,0,0.1,0,0.3,0.1c0.1,0.1,0.1,0.1,0.3,0c0-0.1,0-0.1,0-0.3c-0.1-0.1-0.3-0.3,0-0.5c0.1,0.3,0.1,0.5,0.5,0.5
		c0.3,0,0.4-0.1,0.5-0.4l0.1,0.3h0.1l0.1-0.5l0.3-0.1l-0.7-0.3l0,0h0.5l-0.4-0.5c0.5,0.1,0.4,0.7,0.7,1c0.1,0,0.1,0,0.3-0.1
		c0.3-0.1,0.3-0.3,0.1-0.4c0-0.1-0.1-0.1-0.1-0.3c0.1,0,0.3,0,0.3-0.1c0.1-0.1,0.1-0.1,0.1-0.3c0-0.1-0.1-0.1-0.3-0.1h-0.1h-0.1
		v-0.1c0.1-0.1,0.1-0.1,0.3-0.3c-0.1-0.1-0.4-0.3-0.5-0.1c0,0-0.1,0-0.3,0c-0.1,0-0.3-0.1-0.5-0.1c-0.3,0-0.7-0.1-0.8-0.4
		c-0.1-0.1-0.3-0.1-0.5-0.1c-0.1,0-0.1,0.3-0.1,0.4c-0.1,0-0.3-0.1-0.4-0.3c-0.3-0.1-0.3-0.1-0.4,0.1v0.1l-0.1-0.1
		c0,0,0-0.1-0.1-0.1h-0.1v0.1C463.4,517.2,463.4,517.2,463.4,517.3L463.4,517.3z M441.3,522.1c0.3,0,0.4,0.1,0.7,0.1
		c0.1,0,0.4-0.1,0.4-0.3l-0.3-0.8c-0.3-0.1-0.3-0.4,0-0.7c-0.3-0.3-0.3-0.4,0-0.7c-0.3-0.4-0.3-0.4,0.3-1c-0.1-0.1-0.1-0.4,0-0.5
		c0-0.1,0-0.1-0.1-0.3c-0.1-0.3-0.3-0.4-0.5-0.7l0.3-0.1c-0.3,0.4,0.1,0.4,0.3,0.4c-0.1,0.3,0.1,0.5,0.3,0.4c0.1,0,0.1,0,0.3-0.1
		l0.5-0.3c0-0.1,0.1-0.4,0.4-0.4h0.1c-0.1-0.1-0.1-0.1-0.3-0.1c-0.3-0.1-0.4-0.4-0.3-0.5h0.1v0.1c-0.1,0.1,0,0.3,0.1,0.4
		c0.1,0.1,0.3,0.1,0.4,0c0.1-0.3,0.3-0.3,0.7-0.1c0.3-0.3,0.4-0.3,0.8-0.1l0.1-0.4c0.1,0,0.3,0.3,0.5,0.1c0.3-0.1,0-0.4,0-0.4
		c0.1,0,0.3-0.1,0.3-0.1c0.1-0.1,0.1-0.3-0.1-0.4c0,0,0-0.1-0.1-0.1h0.1c0.1,0.1,0.3,0.4,0.3,0.5c-0.1,0.3-0.3,0.5-0.4,0.7h0.7
		c-0.1-0.3,0-0.4,0.1-0.5c-0.3-0.4-0.3-0.4-0.1-0.8c0.1-0.3,0.1-0.4,0.3-0.7c0,0,0,0,0-0.1c-0.1-0.1,0-0.4,0.1-0.5v-0.1
		c-0.1-0.1-0.3-0.1-0.4-0.1c-0.1,0-0.1,0-0.3,0.1l0,0c0,0.1-0.1,0.1-0.3,0c-0.1-0.1-0.1-0.3-0.3-0.3c-0.1,0.3-0.1,0.1-0.4,0.1
		c-0.4-0.1-0.8,0.1-1,0.5c-0.5,0-0.5,0-0.7,0.4c-0.1,0.1-0.4,0.1-0.5,0.3s0.1,0.3,0.1,0.4c-0.1,0.1-0.4,0.1-0.4,0.3s0.1,0.3,0.1,0.4
		H443l0.3,0.4c-0.1,0-0.3,0-0.4-0.1c-0.1-0.1,0-0.3,0.1-0.4c0,0,0.1-0.1,0-0.1c-0.1-0.3,0-0.4,0.3-0.5c-0.1-0.3-0.1-0.4,0.1-0.7
		v-0.1c-0.1,0-0.3,0-0.4,0c-0.1,0-0.1,0.1-0.1,0.1c-0.1,0-0.1,0.1-0.3,0.1c-0.1,0-0.3,0-0.3,0.1l-0.1,0.1c-0.3-0.1-0.3,0-0.3,0.1
		c0,0.1-0.1,0.3-0.3,0.3c-0.4,0.1-0.4,0.1-0.3,0.5c-0.1,0-0.3,0.1-0.4,0.3c0,0.1-0.1,0.3-0.1,0.4c-0.4,0.1-0.4,0.3-0.3,0.7h0.4v0.1
		h-0.1c0,0.1-0.1,0.1-0.1,0.3c0.1,0,0.1,0.1,0.3,0.1s0.3,0.1,0.1,0.3c-0.1,0.3,0,0.3,0.3,0.3h0.4v0.1l-0.1,0.1
		c-0.3,0.1-0.5,0-0.7-0.3c0,0,0,0,0-0.1s-0.1-0.3-0.3-0.3c-0.3,0-0.3,0.1-0.3,0.4c0,0.1,0.1,0.3,0.1,0.3c0.3,0.1,0.4,0.3,0.7,0.3
		c0.1,0.1,0.1,0.3,0,0.4l-0.1-0.3c-0.3,0.1-0.3,0.1-0.5-0.1c0,0,0,0-0.1,0s-0.5,0.3-0.5,0.4c0,0.3-0.1,0.3-0.3,0.4
		c-0.1,0-0.3,0.1-0.3,0.3c0,0,0,0.1,0.1,0.1c0.1,0.1,0.1,0.3,0,0.4c-0.3,0.1-0.1,0.3,0,0.4s0.1,0.3,0.1,0.4c0,0.1-0.1,0.1-0.1,0.3
		c-0.1,0.1-0.1,0.3,0,0.4s0.3,0,0.4-0.1c0.1-0.1,0.1-0.3,0.3-0.4c0,0.1-0.1,0.4,0,0.5c0.1,0.1,0.3,0.1,0.5,0.3
		C441.2,522.6,441.3,522.5,441.3,522.1L441.3,522.1z M470.6,522.9c-0.3-0.3-0.3-0.3-0.1-0.5c0-0.1,0-0.1-0.1-0.1
		c-0.1-0.1-0.3-0.1-0.4-0.1c-0.1-0.1-0.4,0-0.5,0.1l0,0c0,0.1-0.1,0.1-0.1,0.3c-0.1,0.1-0.3,0.3-0.4,0.4c-0.1,0.1-0.3,0.1-0.3,0.1
		c-0.1,0-0.4,0-0.5,0.1s-0.4,0-0.5-0.1c0,0,0,0,0-0.1s-0.1-0.1-0.1-0.3h-0.1c-0.1,0.3-0.1,0.4-0.3,0.7c0,0.5-0.3,1-0.7,1.1
		c-0.1,0-0.1,0.1-0.1,0.1l0.1,0.1c0.1,0.3,0.1,0.3-0.1,0.5c-0.1,0.1-0.3,0.3-0.4,0.5c-0.1,0.1-0.3,0.3-0.4,0.3c-0.1,0-0.3,0-0.3,0.1
		c-0.1,0.3-0.4,0.4-0.7,0.3l-0.1,0.4c0.3,0.1,0.3,0.3,0.1,0.5c0,0.1,0,0.3,0.1,0.3c0.3,0,0.3,0.1,0.4,0.3c0.1,0.3,0.4,0.4,0.5,0.3
		s0.3,0,0.3,0.1c0.1,0.3,0.4,0.1,0.5-0.1c0.1-0.1,0.1-0.3,0.3-0.4c0-0.1,0-0.3-0.3-0.3c0,0-0.1-0.1-0.3-0.1
		c-0.1-0.1-0.1-0.3-0.4-0.3c-0.3,0-0.4-0.1-0.4-0.4s0.1-0.5,0.4-0.5c0,0.1-0.1,0.1-0.1,0.3c-0.1,0.1-0.1,0.4,0.1,0.4
		c0.1,0,0.3,0,0.4,0c0.1,0,0.1,0,0.1,0c0,0.1-0.1,0.3,0,0.4c0,0.1,0.1,0.1,0.3,0.1s0.1-0.1,0.3-0.3c0.1,0,0.4,0.1,0.5,0.1
		c0.3-0.1,0.1-0.4,0-0.7c0.1,0.1,0.1,0.1,0.3,0.3c0,0.1,0,0.3,0.1,0.4s0.3,0,0.3-0.1h0.1c0.1,0.3,0.3,0.1,0.4,0l0.1-0.1
		c0.3,0.1,0.3-0.1,0.3-0.3h0.3l-0.4-0.3c0.1,0,0.3,0,0.4-0.1c0.1,0,0.1-0.1,0.1-0.3c-0.1,0-0.1-0.1-0.3-0.1s-0.1,0.1-0.3,0.1
		c-0.3,0.3-0.7,0.4-1,0.4c-0.1,0-0.4,0-0.5,0s-0.3,0-0.3-0.1c-0.1-0.1-0.1-0.3-0.1-0.5c0,0,0.1,0,0.1-0.1c0,0.1,0,0.4,0.1,0.5
		c0.1,0.1,0.4,0.1,0.5,0c0,0,0,0,0.1-0.1h0.1c0.3,0.1,0.4,0.1,0.5-0.1c0.1,0,0.4,0,0.4-0.1c0.1-0.3,0.3-0.4,0.5-0.4
		c0.1,0,0.3-0.1,0.3-0.3s-0.1-0.1-0.1-0.3l-0.1-0.1c0.5,0.1,0.5,0.3,0.3,0.8l0.1,0.4h0.1c0-0.3,0.1-0.3,0.4-0.3l0.1-0.1
		c0-0.1,0-0.1,0-0.3h0.3c0-0.1,0-0.1,0-0.3c0-0.1,0-0.1,0-0.3c0.3-0.1,0.3-0.3,0-0.4c-0.1-0.1-0.1-0.1,0-0.3
		c0.3-0.1,0.3-0.1,0.1-0.4c-0.1-0.1-0.1-0.3-0.1-0.4V523C470.5,523.2,470.5,523,470.6,522.9L470.6,522.9z M467.5,522.5
		c0.1,0.1,0.1,0.3,0.3,0.4h0.1c0.1-0.3,0.3-0.1,0.4-0.1c0.1,0,0.3,0,0.4-0.1c0-0.1-0.1-0.3-0.1-0.3c-0.1-0.1-0.1-0.1-0.3-0.3
		c-0.7,0.3-0.7,0.3-1-0.1c0.1,0,0.1,0.1,0.3,0.1s0.1,0,0.3,0c0.3,0,0.3-0.1,0.1-0.3c0-0.1-0.1-0.1-0.1-0.3l0,0
		c0.1,0.1,0.3,0.3,0.4,0.4c0.3,0,0.3-0.3,0.3-0.4c0.3,0,0.3,0,0.1-0.5h0.1c0-0.1,0-0.1-0.1-0.3c-0.1-0.1-0.1-0.1-0.3-0.3l0,0
		l0.3,0.1v-0.3c0.1,0.1,0.3,0.3,0.4,0.4c0.1,0,0.3,0,0.3-0.1c0,0,0,0,0-0.1v-0.1c0.1,0,0.3,0,0.5,0c0.3-0.1,0-0.3,0-0.4
		c0.1-0.1,0.3-0.1,0.3-0.3c0-0.1,0-0.3,0-0.4l-0.3-0.1l0.1-0.1c-0.3-0.3,0-0.3,0.1-0.4c-0.1-0.3-0.4-0.4,0-0.7
		c-0.1-0.1-0.3-0.1-0.3-0.3c0-0.3-0.1-0.3-0.4-0.3c-0.1,0-0.3-0.1-0.1-0.3c0.1-0.3,0-0.3-0.1-0.3s-0.3,0-0.4,0l0.1-0.4
		c-0.3-0.1-0.5,0-0.8,0.3c-0.3,0.1-0.5,0.3-0.7,0.4l0.1,0.5c0.1,0.1,0.1,0.3,0.3,0.4c0,0.3,0,0.4-0.3,0.4l0,0
		c0.3,0.1,0.3,0.4,0.1,0.7c0,0,0,0.1-0.1,0.1v0.1c0.1,0.4,0.1,0.4-0.3,0.5c-0.1,0-0.1,0.1-0.1,0.1c0,0.3-0.3,0.5-0.1,0.8
		c0,0.1-0.1,0.3-0.1,0.3s-0.1,0-0.1,0.1c0,0.1,0,0.3-0.1,0.5c0.4,0,0.3,0.4,0.4,0.7L467.5,522.5z M440.9,523.4
		c-0.1-0.1-0.1-0.3-0.3-0.3c-0.3,0-0.3,0.1-0.3,0.4l-0.1,0.1c0,0.1-0.1,0.1-0.1,0.3c0.1,0,0.1,0.1,0.3,0.1c0.1,0,0.1,0,0.3,0
		l-0.4,0.4c0.1,0.1,0.3,0.1,0.4,0.3c0.1,0,0.3,0.3,0.1,0.4c0,0,0,0,0,0.1s0,0.3,0,0.3c0.1,0.1,0.3,0,0.4,0l0.1-0.1
		c0,0.1,0,0.3,0,0.4c0.1,0.3,0.4,0.3,0.7,0.1l0.3-0.3h0.1c0,0.1,0,0.1,0,0.3c0,0.1,0.1,0.1,0.1,0.1c0.3,0,0.4,0,0.5-0.3l0.1-0.1
		c0.3-0.1,0.3-0.4,0-0.5l-0.1-0.1l0.1-0.1c0.3,0,0.3-0.1,0.1-0.4c0-0.1,0-0.3,0-0.5c-0.4-0.3-0.4-0.5,0-1v-0.1
		c0-0.3,0.1-0.5,0.4-0.7c0.1,0,0.1-0.1,0.1-0.1c-0.3,0-0.4,0.1-0.5,0.1s-0.3-0.1-0.4-0.3c-0.1,0.5-0.7,0.4-1.1,0.4
		c-0.3,0-0.4,0.1-0.5,0.3l0.3,0.1v0.1c-0.1,0-0.3,0-0.4,0s-0.1,0-0.1,0.1c0,0,0,0.1,0.1,0.1c0.1,0.1,0.1,0.1,0.3,0.3v0.1h-0.3
		c0,0,0,0,0,0.1s-0.1,0.3,0,0.4c0.1,0.1,0.3,0,0.4,0.1c0.1,0,0.1,0,0.3,0.1c-0.1,0.1-0.5,0.1-0.3,0.4c0.1,0.3,0.1,0.3,0.5,0
		c0.1,0.1,0,0.5,0.4,0.4c0.1-0.1,0.3-0.3,0.4-0.4v0.1c-0.1,0.3-0.4,0.5-0.8,0.4l0,0c-0.1,0-0.1-0.1-0.3-0.1c-0.3,0-0.4,0-0.5-0.3
		c0-0.1-0.1-0.3-0.1-0.4C440.5,523.8,440.5,523.8,440.9,523.4L440.9,523.4z M448.7,528.9c0.3,0,0.5-0.1,0.8-0.3
		c0.4-0.1,0.4-0.1,0.7,0.1c0.1,0.3,0.5,0.3,0.7,0.1c0.3-0.3,0.5-0.5,1-0.5c-0.1-0.5-0.7-0.8-1.2-0.7l0,0c-0.4,0.1-0.8,0.3-1.2,0.4
		c-0.1,0-0.1,0.1-0.1,0.1C449.1,528.3,449,528.6,448.7,528.9L448.7,528.9z M463.5,527.3c-0.3-0.1-0.5,0-0.8,0.1
		c-0.1,0-0.4,0.1-0.4,0.4c-0.1,0.3-0.3,0.4-0.5,0.4c-0.4,0.1-0.8,0.3-1.2,0.7c0.1,0,0.3,0,0.4,0.1c0.4,0.1,0.7,0.1,0.8-0.1
		c0.1-0.1,0.3-0.3,0.4-0.1c0.4,0.1,0.7,0,0.8-0.4C463.3,527.8,463.4,527.5,463.5,527.3z M458.5,536.9
		C458.5,536.9,458.5,537.1,458.5,536.9C458.5,537.1,458.5,537.1,458.5,536.9c0.4,0.1,0.7,0.1,0.8,0.3c0.3,0.1,0.5,0,0.7-0.1
		c0,0,0,0,0-0.1c0.1-0.3,0.1-0.5,0.3-0.7c-0.3-0.1-0.5-0.1-0.8,0C459.2,536.5,458.8,536.8,458.5,536.9L458.5,536.9z M448.7,526.7
		c0.3,0.3,0.5,0.4,0.8,0.7c0.1,0.1,0.3,0.1,0.4,0.1c0.3,0,0.5-0.1,0.8-0.3c-0.1-0.1-0.3-0.1-0.4-0.3c-0.3-0.1-0.4-0.1-0.7-0.3
		s-0.4-0.3-0.7-0.4L448.7,526.7z"/>
	<path id="Path_3" d="M454.1,530c-0.3-1.4-0.7-2.7-1.2-3.9l1.2-1c0.4,0.3,0.4,0.7,0.4,1c0.3,1.1,0.5,2.2,0.8,3.3
		c0.1,0.8,0.4,1.8,0.5,2.6c0.1,1.1,0.3,2.2,0.4,3.3c0,0.1,0,0.4,0.1,0.5c0,0,0,0,0.1,0c0-0.4,0-1-0.1-1.4c-0.1-0.7-0.1-1.5-0.3-2.2
		c-0.1-0.8-0.3-1.6-0.3-2.3c0-0.4-0.1-0.8-0.1-1.2c0-0.7,0-1.4,0-2c0-0.3,0-0.4,0-0.7h0.1c0.1,0.1,0.3,0.3,0.4,0.4
		c0.1,0.1,0.3,0.1,0.4,0.3c0.3,0.1,0.4,0.3,0.5,0.5c0.3,0.7,0.4,1.4,0.7,2c0,0.1,0.1,0.4,0.1,0.5c0,0.8,0,1.6,0.3,2.3
		c0,0.3,0,0.4,0.1,0.7c0-2.2-0.3-4.2-0.7-6.4c0.1,0,0.3,0,0.4,0c0.3,0,0.5,0,0.8,0c0.1,0,0.1-0.1,0.3-0.3c0.1,0,0.1-0.1,0.3-0.1
		c0,0.1,0.1,0.1,0.1,0.3c0.1,1.1,0.1,2,0.1,3.1c0,0.5,0.1,1.1,0.3,1.5c0,0,0-0.1,0-0.3c0-1,0-1.9,0.3-2.7c0-0.5,0.1-1.1,0.4-1.5
		c0.1-0.1,0.3-0.3,0.4,0c0.1,0.3,0.4,0.4,0.8,0.4c0.1,0,0.4,0.3,0.5,0.5c0.1,0.3-0.3,0.5-0.5,0.5c-0.5,0-0.8,0.4-1,0.8
		c-0.1,0.3-0.3,0.5-0.3,0.7h0.1c0.1,0,0.1,0,0.3-0.1c0.4-0.4,0.8-0.3,1.2,0c-0.1,0.3-0.3,0.5-0.4,0.7c-0.1,0.3-0.1,0.4-0.1,0.7
		c0,0.7-0.1,1.2-0.4,1.9c-0.3,1-0.4,1.9-0.7,3c0,0.1-0.1,0.3-0.3,0.4c-0.1,0.1-0.4,0.3-0.5,0.4s-0.3,0.3-0.4,0.3
		c-0.1,0-0.4,0.3-0.4,0.4c0,0.1-0.1,0.1-0.1,0.3v0.1h0.1c0.1,0,0.3-0.3,0.4-0.1c0.3,0.1,0.5,0.3,0.8,0.4v0.1c0,0.7,0,1.2,0,1.8
		c0,0.4-0.4,0.5-0.7,0.7c-0.1,0-0.3,0.1-0.4,0.1c-0.3,0-0.4,0-0.4-0.3s0-0.4-0.1-0.7c0-0.1-0.1-0.1-0.1-0.3l0,0c0,0.1,0,0.3,0,0.4
		c0.1,0.8-0.4,1-1,0.8c-0.4,0-0.8,0-1.1,0.1c-0.7,0.3-1.5-0.3-1.4-0.8c0-0.3,0-0.4-0.1-0.7c0,0.1,0,0.3,0,0.5s-0.1,0.3-0.4,0.3
		c-0.4,0-0.5-0.3-0.7-0.7c-0.1-1-0.4-1.8-0.5-2.7c-0.1-0.8-0.3-1.6-0.4-2.3c0-0.3,0-0.5-0.1-1c-0.1-0.5-0.3-1.1-0.3-1.6
		c-0.1-0.5-0.3-1.1-0.5-1.6c-0.1-0.3-0.3-0.7-0.4-1l1-0.4c0.5,0.8,0.8,1.8,1.1,2.6h0.1c0-0.1,0-0.4,0-0.5c-0.1-0.8-0.3-1.5-0.5-2.3
		c-0.1-0.7-0.5-1.1-1.2-1.2c-0.1-0.1-0.4-0.1-0.5-0.3v-0.1c0.1,0,0.1,0,0.3-0.1c0.1,0,0.4-0.1,0.5-0.3c0.3-0.3,0.5-0.3,0.8,0l0,0
		c0.5,0.7,1,1.4,1.4,2.2C453.7,529.2,453.9,529.6,454.1,530L454.1,530c0,0.1,0,0.3,0,0.4c0,0.5,0.1,1,0.1,1.5c0.1,1,0.3,1.8,0.4,2.7
		c0.1,0.7,0.1,1.4,0.3,1.9c0,0.1,0,0.1,0,0.3c0-0.1,0.1-0.3,0-0.4c0-0.5-0.1-1.1-0.1-1.5c-0.1-0.8-0.1-1.5-0.3-2.3
		C454.4,531.6,454.3,530.8,454.1,530z"/>
	<path id="Path_4" d="M448.4,518.8c0-0.1,0-0.4,0-0.4c0.1-0.1,0.3-0.1,0.4-0.1c0.1,0,0.3,0,0.3,0l0,0l-0.4-0.3
		c-0.3,0.3-0.4,0.3-0.5-0.1l0.1-0.1v-0.1h-0.1c-0.3,0.1-0.4,0-0.5-0.3c-0.5,0.1-0.7,0.1-0.7-0.1c0-0.3,0.1-0.4,0.3-0.3
		c-0.1-0.1-0.3-0.3-0.1-0.4c0-0.1,0.3-0.1,0.4-0.3c-0.3-0.1-0.5-0.1-0.5-0.4c0-0.3,0.3-0.4,0.5-0.3c-0.1-0.1-0.3-0.3-0.3-0.4
		c0-0.3,0.1-0.3,0.4-0.3c-0.3-0.1-0.4-0.3-0.1-0.5c0.1-0.3,0.4-0.1,0.7-0.1c0-0.5,0.1-0.5,0.5-0.4c0-0.3-0.1-0.4,0-0.5
		c0.1,0,0.4,0,0.5,0.1c0-0.1,0.1-0.3,0.3-0.4c0,0,0.3,0,0.4,0.1c0,0,0.1-0.1,0-0.3c0-0.1,0-0.3,0.1-0.3s0.1,0.1,0.3,0.1l0.3-0.3
		l0.1,0.3l0.5-0.5l0.1,0.1c0.1,0.1,0.3,0.3,0.4,0c0.1-0.1,0.3-0.1,0.3,0l0,0l0.1,0.1c0.3-0.1,0.5,0.1,0.8,0v0.1l0.7-0.3v0.1l0,0
		c0,0.1,0,0.3,0,0.3c0.1,0.1,0.1,0,0.3,0l0.3-0.1v0.5l0.4-0.1v0.3c0.3,0,0.4-0.4,0.7-0.1c0.3,0.3-0.1,0.4-0.3,0.5h0.4
		c0,0.1-0.1,0.1-0.1,0.3c-0.1,0.1-0.1,0.3,0.1,0.4c0,0,0.1,0,0.1,0.1c-0.4,0.1-0.1,0.4,0,0.5l-0.4,0.3l0.1,0.4l-0.5-0.1
		c0,0.1,0.1,0.1,0.1,0.3v0.1c-0.1,0.1-0.3,0.3-0.4,0.4c0,0-0.3,0-0.4,0c0.3,0.1,0.4,0.3,0.3,0.5c0,0.3-0.3,0.5-0.5,0.4
		c-0.1,0-0.1,0-0.1,0h-0.1c0,0-0.1,0-0.1-0.1c0,0,0-0.1,0.1-0.1c0.3,0,0.4-0.3,0.4-0.4c0.1-0.3,0-0.4-0.1-0.4s-0.3,0-0.4,0v0.1
		c0.1,0,0.1,0,0.3,0c0.3,0,0.3,0.1,0.1,0.3c-0.1,0.3-0.3,0.4-0.8,0.4l0.3,0.3c-0.1,0.1-0.1,0.4-0.4,0.1c0,0,0,0-0.1,0
		c-0.3,0.1-0.5,0.1-0.7,0c0,0-0.1,0-0.1,0.1c-0.1,0.3-0.4,0.1-0.5,0c0-0.1-0.1-0.1-0.3-0.1l0.4,0.4c0,0,0,0.1-0.1,0.3
		c-0.1,0-0.3,0.1-0.4,0.1c-0.1-0.1-0.3-0.1-0.5-0.1l-0.1-0.1c0-0.1,0-0.1,0-0.3c-0.1,0-0.3,0.1-0.3,0.4c0,0,0,0,0,0.1
		c0.1,0.3,0,0.3-0.1,0.4c-0.1,0-0.3,0.1-0.4,0c-0.1,0-0.1,0-0.3-0.1v0.3h0.3l-0.3,0.4c0.1-0.1,0.3-0.1,0.5-0.3
		c0.1,0,0.3,0.1,0.4,0.1c0.1,0,0.3-0.1,0.4-0.1c0.1,0,0.3,0.3,0.4,0.4c0-0.3,0-0.4,0.3-0.4s0.4-0.3,0.7,0c0,0,0.1,0,0.3,0
		c0.3,0,0.3,0,0.3,0.3v0.1v0.1c0.1-0.1,0.3-0.3,0.4-0.3c0.1,0,0.3,0.1,0.4,0.3c0.1,0,0.3-0.4,0.7-0.3l-0.1,0.7c0.1,0,0.1,0,0.3,0
		s0.1,0,0.3,0c0,0.1,0,0.3,0,0.4c0,0.1-0.1,0.3-0.1,0.4h0.1l0.1-0.1c0.1,0,0.1,0,0.3,0c0,0.1,0,0.1,0,0.3c-0.1,0.1-0.1,0.3-0.3,0.4
		h0.1c0.1-0.1,0.3-0.1,0.3-0.1c0.1,0,0.1,0,0.3,0c0,0.1,0,0.1,0,0.3v0.1c0.3,0.1,0.5,0,0.7,0.4l-0.3,0.3c0,0,0,0.1,0.1,0.1
		c0.1,0.1,0.3,0.1,0.3,0.3s-0.1,0.1-0.1,0.3c0.1,0,0.3,0.1,0.4,0.3c0,0,0,0.1,0,0.3c-0.1,0-0.1,0-0.3,0s-0.3,0-0.3,0.1
		c-0.1,0.1-0.1,0.1-0.3,0.1s-0.3-0.1-0.1-0.3c0-0.1,0-0.3,0-0.5v-0.1c0-0.3,0-0.3-0.3-0.4c0-0.4-0.3-0.7-0.5-0.7s-0.4,0.1-0.4,0.4
		v0.1c0.1-0.1,0.1-0.1,0.3-0.3c0.1,0,0.3,0,0.4,0c0.1,0.1,0.1,0.3,0,0.4s-0.1,0.3-0.3,0.3c0.3,0,0.5-0.4,0.7,0.1l-0.5,0.4h0.5
		c0.1,0.4-0.3,0.4-0.4,0.5c0.1,0,0.3,0.1,0.4,0.3v0.3l-0.1,0.1c-0.1,0-0.3,0.1-0.4,0.3c-0.1,0.1-0.3,0.1-0.4,0c-0.1-0.1-0.3,0-0.4,0
		c-0.4,0.1-0.4,0.1-0.5-0.3c0.3,0,0.7-0.3,0.7-0.5c0,0,0-0.1,0.1-0.1c0-0.1,0-0.3,0-0.4s-0.3-0.1-0.3-0.1c0.1,0.1,0.1,0.3,0.1,0.4
		s-0.3,0.3-0.4,0.4l0.1,0.3l-0.5,0.1l0.1,0.3c-0.3,0.1-0.4,0.1-0.8-0.1c0,0.3,0.3,0.4,0.5,0.4h0.1c0.3-0.1,0.4,0,0.5,0.1
		s0,0.3,0,0.4l-0.1,0.1c-0.1,0-0.1,0-0.3,0c0,0.3,0.1,0.4-0.3,0.4c0-0.1,0-0.1,0-0.3c0-0.1-0.1-0.1-0.1-0.3c0,0-0.1,0-0.3,0.1
		c-0.1,0-0.3,0.1-0.3,0.1c-0.1-0.1-0.1-0.3-0.3-0.4c0,0-0.1,0-0.1,0.1c-0.1,0.1-0.3,0.1-0.4,0.1c-0.1,0-0.3-0.1-0.3-0.3
		c0,0,0-0.1-0.1-0.1c-0.1,0.3,0,0.5,0.3,0.7h0.1c0.1,0,0.3,0,0.4,0s0.1,0,0.3,0c0.1,0.1,0.4,0.1,0.5,0.1l0,0c0,0.1-0.1,0.1-0.1,0.3
		c-0.1,0.1-0.1,0.1-0.3,0.1c-0.1,0.1-0.3,0.1-0.4,0l0,0h-0.1c-0.4,0.3-0.5,0.1-0.7-0.3c-0.1,0-0.1,0.1-0.1,0.3v0.1
		c0.1,0.1,0.4,0.3,0.7,0.1c0.1,0,0.3,0,0.4,0c0.1,0,0.3,0,0.4,0c0.1,0,0.3-0.1,0.4-0.3c0.1-0.1,0.3-0.1,0.4,0l0,0v0.3
		c-0.1,0-0.3,0.1-0.4,0.1v-0.1c0,0.1,0,0.1,0,0.3c0,0.1-0.1,0.3-0.1,0.3s-0.3,0-0.3-0.1c-0.1-0.1-0.3-0.3-0.3-0.4l-0.3,0.5V527
		c-0.5,0.4-0.5,0.4-1-0.1h-0.1c0,0.1,0,0.3,0.1,0.4c0.1,0.3,0.4,0.3,0.7,0.3c-0.1,0.1-0.1,0.3-0.1,0.3c-0.1,0-0.4,0-0.5,0
		c-0.1,0-0.1-0.1-0.3,0c-0.1,0-0.3,0.1-0.3,0c-0.1-0.1-0.4-0.3-0.5-0.4c0.3-0.1,0.3-0.4,0-0.8c0.4-0.4,0.3-0.5-0.3-0.8
		c0.1-0.3,0.1-0.4,0-0.7c0-0.1,0-0.1,0-0.3c0.3-0.3,0.1-0.4-0.1-0.5c-0.1-0.1-0.4-0.1-0.4-0.4l-0.1-0.1c-0.1-0.1-0.1-0.1-0.3-0.3
		c0,0,0-0.1-0.1-0.1s-0.3-0.1-0.1-0.3l0,0l0,0c-0.1-0.1-0.4-0.1-0.4-0.4c0-0.1-0.3-0.1-0.4-0.3l0.1-0.4v-0.1
		c0.3-0.1,0.3-0.3,0.3-0.5c0-0.1,0-0.1,0.1-0.1c0.3-0.1,0.3-0.4,0.3-0.5c0-0.1,0-0.3,0.1-0.3h0.1
		C447.9,518.8,448.1,518.7,448.4,518.8L448.4,518.8L448.4,518.8z M448.7,516.5c-0.3,0.1-0.4,0.3-0.7,0.1c-0.3-0.3,0.1-0.3,0.1-0.5
		h-0.4c0,0.1,0,0.1,0,0.3c-0.1,0.3,0,0.4,0.3,0.4C448.3,516.9,448.6,516.8,448.7,516.5L448.7,516.5L448.7,516.5z M447.7,516l0.1-0.5
		C447.6,515.7,447.6,515.7,447.7,516L447.7,516z"/>
	<path id="Path_5" d="M461.2,517.6c0.1,0.3,0.5,0,0.5,0.3c0,0.1-0.3,0.3-0.3,0.4c0,0,0,0,0.1,0.1c0.3,0.1,0.3,0.3,0,0.4
		c-0.1,0.1-0.1,0.1-0.1,0.3c0.1,0.3,0,0.3-0.3,0.3c-0.1,0-0.1,0-0.3,0.1c-0.3,0.3-0.4,0.3-0.7,0c0.1,0.3,0.4,0.4,0.7,0.3l0,0
		c0.1,0,0.1,0,0.3,0c0.1,0.1,0.1,0.1,0.1,0.3l-0.1,0.1l-0.4,0.4l-0.4-0.3v0.1c-0.3,0.1-0.4,0.1-0.7,0.1c-0.3-0.1-0.4-0.3-0.7-0.4
		c0.1,0.4,0.7,0.7,1.1,0.4c0.1-0.1,0.3,0,0.4,0.1c0,0.1,0.1,0.3,0.1,0.4l-0.1,0.1c-0.3-0.1-0.3,0-0.4,0.1h-0.3c0,0,0-0.1-0.1-0.1
		c-0.3,0.1-0.4,0.5-0.7,0.3c-0.1-0.1-0.1-0.3-0.1-0.5l0,0c-0.1,0.1,0,0.4,0.1,0.5c0.1,0.1,0.3,0.3,0.4,0.1c0.1-0.1,0.3-0.1,0.4,0.1
		c-0.1,0.1-0.4,0.3-0.7,0l0,0c0,0.1,0,0.1-0.1,0.3c0,0.1-0.3,0.3-0.4,0.1c0,0-0.1,0-0.1-0.1c-0.1-0.1-0.3-0.1-0.4,0
		c-0.1,0.1-0.3,0.1-0.4,0.1c-0.1-0.1-0.3-0.1-0.4-0.3v0.1c0,0.1-0.1,0.1-0.1,0.1l-0.1-0.1c-0.1-0.1-0.1-0.1-0.3-0.3
		c-0.1,0.1-0.1,0.3,0,0.4s0.4,0.3,0.7,0.1l0,0c0.4,0,1,0,1.4-0.1c0.1,0,0.3,0,0.3-0.1c0.3-0.1,0.5-0.1,0.8-0.1
		c-0.1,0.3-0.1,0.4-0.4,0.4l0,0c-0.3,0.1-0.5,0.4-0.7,0.5c-0.1,0.1-0.1,0.4,0,0.5l0,0c0.1,0.1,0.1,0.1,0.3,0.3
		c0,0.3,0.1,0.5,0.1,0.8c0,0.1,0,0.1-0.1,0.3c-0.1,0.1-0.1,0.3-0.1,0.4c0,0.4,0,0.4-0.4,0.4h-0.1c-0.3,0.4-0.3,0.4-0.8,0.1
		c-0.3,0.4-0.3,0.4-0.8,0.1c0.1-0.1,0.3-0.3,0.4-0.4c0.1-0.1,0.3-0.4,0.3-0.5c0,0.3-0.3,0.5-0.5,0.5c-0.1,0-0.4-0.1-0.4-0.3
		c-0.1,0-0.4,0-0.5-0.1c-0.1,0,0-0.3,0-0.4c-0.1,0-0.3,0-0.4,0.1c-0.1,0.1-0.3,0-0.3-0.3c0-0.1,0-0.3,0.3-0.3c0.3,0,0.5-0.3,0.5-0.5
		c0-0.1,0.1-0.3,0.3-0.4l0,0c0.3-0.1,0.4-0.3,0.1-0.5c0.3-0.3,0.3-0.3,0-0.7c0,0-0.1-0.1,0-0.1c0.3-0.3,0-0.3-0.1-0.4
		c0-0.1,0.1-0.4,0-0.5c-0.1-0.1-0.3-0.3-0.4-0.3c-0.1,0-0.3-0.1-0.4-0.3c-0.3-0.1-0.4-0.3-0.3-0.7c-0.3,0-0.3-0.4-0.4-0.5
		c-0.3-0.1-0.4-0.4-0.4-0.7l-0.1-0.1h0.4l-0.1-0.3c0.1-0.3,0.4-0.1,0.7-0.1c-0.1-0.1-0.3-0.1-0.3-0.1c-0.1-0.1-0.3-0.3,0-0.4
		s0.4-0.1,0.7-0.3l-0.5-0.1c0,0,0.1-0.1,0.3-0.1s0.3,0,0.3-0.1c0.1-0.3,0.3-0.3,0.5-0.3c0-0.1,0-0.3,0-0.4s0-0.1,0.1-0.3h0.1
		c0.1,0.1,0.1,0,0.3,0c0,0,0-0.1,0.1-0.1c0.1-0.1,0.3-0.3,0.4-0.1l0.1,0.1c0,0.1,0.1,0.1,0.1,0.3c0-0.1,0.1-0.3,0.1-0.3
		c0.1-0.1,0.1-0.1,0.3-0.1c0,0,0.1,0.1,0.1,0.3c0,0.1,0,0.3,0,0.3c0.1-0.1,0.3-0.4,0.4-0.5c0.1-0.1,0.3-0.1,0.3,0.1
		c0,0.1,0.1,0.3,0.1,0.4l0.3-0.7h0.1l0.4,0.5c0.1-0.1,0.1-0.3,0.3-0.4c0,0,0.1,0,0.3-0.1c0,0.1,0,0.1,0,0.3c0,0.1,0,0.3,0,0.3
		c0.1,0,0.4-0.1,0.5-0.3s0.4,0,0.5,0.1c0.1,0.1,0.1,0.3,0,0.4c0,0.1-0.1,0.1-0.3,0.3l0,0c0.1,0,0.1-0.1,0.3-0.1s0.3,0,0.4,0
		c0,0.1,0,0.3,0,0.4s0,0.1-0.1,0.3c0.1,0,0.1,0,0.3,0s0.3,0,0.4,0c0,0.1,0,0.3,0,0.4v0.1h0.4l-0.3,0.3c0,0,0.1,0,0.1,0.1
		c0.1,0,0.3,0,0.3,0.1c0,0.1-0.1,0.3-0.1,0.4s-0.1,0.1-0.3,0.1h0.3c0,0.1-0.1,0.3-0.1,0.5c-0.1,0.3,0,0.4,0.3,0.5l-0.4,0.3
		c0,0.1,0.1,0.4-0.1,0.4v0.1c0,0.1,0,0.3-0.1,0.3l0,0c-0.1,0-0.1,0.1-0.1,0.3c0,0.1,0,0.3-0.1,0.4c-0.1,0.1-0.3,0-0.4-0.1l0,0
		c-0.1,0.1-0.3,0.3-0.5,0.4c0,0-0.1,0-0.4-0.1c0.3-0.1,0.4-0.4,0.7-0.5c0.1-0.1,0.3-0.3,0.3-0.3c0-0.3,0.3-0.4,0.4-0.5
		c0.3-0.1,0.3-0.4,0.1-0.7c0,0,0,0,0-0.1c0.1-0.1,0.3-0.3,0.3-0.5v-0.1l0.1-0.1c0-0.1,0.1-0.3,0.1-0.3c-0.1-0.3,0.4-0.8-0.3-1
		C461.5,517.6,461.4,517.6,461.2,517.6z"/>
	<path id="Path_6" d="M463.4,517.2c0-0.1,0-0.1,0-0.3v-0.1c0.1,0,0.1,0,0.3,0c0,0,0,0.1,0.1,0.1l0.1,0.1c0,0,0-0.1,0.1-0.1
		c0-0.3,0.1-0.3,0.4-0.1c0.1,0.1,0.3,0.1,0.4,0.3c0.1-0.1,0.1-0.4,0.1-0.4c0.1,0,0.4,0,0.5,0.1c0.1,0.3,0.5,0.4,0.8,0.4
		c0.1,0,0.3,0.1,0.5,0.1c0.1,0,0.1,0,0.3,0c0.3-0.1,0.4,0,0.5,0.1c-0.1,0.1-0.1,0.1-0.3,0.3v0.1h0.1h0.1c0.1-0.1,0.3,0,0.3,0.1
		s0,0.3-0.1,0.3c0,0-0.1,0.1-0.3,0.1c0.1,0.1,0.1,0.1,0.1,0.3c0.1,0.3,0.1,0.3-0.1,0.4c-0.1,0-0.1,0.1-0.3,0.1
		c-0.3-0.3-0.1-0.8-0.7-1l0.4,0.5h-0.5l0,0l0.7,0.3l-0.3,0.1l-0.1,0.5h-0.1l-0.1-0.3c-0.1,0.3-0.3,0.5-0.5,0.4
		c-0.4,0-0.4-0.3-0.5-0.5c-0.1,0.3,0,0.4,0,0.5c0,0.1,0,0.1,0,0.3c0,0.1-0.1,0.1-0.3,0c0-0.1-0.1-0.1-0.3-0.1
		c-0.1,0.1-0.3,0.1-0.4,0.3c-0.3,0-0.3,0-0.3-0.3c0-0.1,0-0.1-0.1-0.3c-0.1,0.1-0.3,0.3-0.5,0.3c-0.3-0.1-0.3-0.3-0.3-0.5
		c-0.1,0.1-0.3,0.3-0.1,0.4c0.1,0.3,0.3,0.4,0.7,0.3c0.1,0,0.1,0,0.3,0c0.3,0.3,0.5,0.3,0.8,0.1c0.1,0.3,0.4,0.3,0.7,0.1
		c0,0,0,0,0.1,0c0.3,0,0.7,0.1,1,0.1c0.1,0,0.1,0.1,0.1,0.1c0,0.1-0.1,0.1-0.1,0.1c-0.1,0-0.1,0.1-0.3,0.1c0,0.1,0.1,0.1,0.1,0.1
		c0.1,0.1,0.1,0.3,0,0.4c-0.1,0-0.3,0.1-0.3,0.1l0,0h0.1c0.1,0,0.1,0,0.3,0s0.1,0.1,0.3,0.3l-0.3,0.3l0.1,0.1c0,0.1,0.1,0.3,0.1,0.3
		c-0.1,0-0.1,0-0.3,0s-0.1,0-0.3,0c0.1,0.1,0.1,0.1,0.1,0.3c0.1,0.1,0.1,0.3,0,0.4c0,0,0,0-0.1,0s-0.3,0.3-0.1,0.4l0,0l-1.1,0.4
		l-0.3-0.7c0.1-0.1,0.4-0.1,0.7-0.3c0.3,0,0.4-0.3,0.4-0.4c0-0.1,0-0.3-0.1-0.4c0,0.3,0,0.7-0.4,0.7c0-0.1,0-0.1-0.1-0.3l-0.1-0.1
		l-0.1,0.1c0,0.1,0.1,0.3-0.1,0.4c-0.1,0-0.3,0-0.4,0l0,0c0.1,0.1,0.1,0.3,0.3,0.4c0,0.1,0.1,0.3-0.1,0.3v0.1l0.1,0.1
		c-0.1,0-0.1,0.1-0.3,0.1c0,0-0.1,0.1,0,0.1c0,0.1,0.3,0.1,0,0.3c-0.1,0-0.3,0.1-0.4,0.1l-0.1-0.1c0,0-0.1,0-0.3,0
		c-0.1,0.1-0.3,0.1-0.4,0.1c-0.1-0.1-0.3-0.3-0.3-0.4c0,0.1,0,0.1,0,0.3c0.1,0.3,0.4,0.4,0.7,0.3c0.1,0.3,0.1,0.4-0.1,0.4
		s-0.5,0.1-1,0h-0.1c-0.1,0.1-0.4,0.1-0.5,0l0,0c-0.1-0.1-0.1-0.4,0-0.5v-0.1c-0.3,0.1-0.4,0.3-0.3,0.5c0.3,0.3,0.4,0.7,0.4,1.1
		c-0.4,0.1-0.4-0.1-0.5-0.3c-0.1,0.3-0.5,0.3-0.7,0.1l0,0l0.5-0.1v-0.1c-0.1,0-0.3,0-0.5,0c-0.3-0.1-0.3-0.3,0-0.5
		c-0.1,0-0.3,0-0.3,0c-0.1,0-0.3-0.1-0.3-0.1s0-0.1,0.1-0.3h-0.1l-0.1,0.1c0,0.1,0.1,0.3,0.3,0.4s0.3,0.1,0.1,0.3
		c0,0.1-0.1,0.1-0.3,0.1l0,0c-0.1-0.1-0.3-0.3-0.5-0.3c-0.1,0-0.1-0.1-0.3-0.1c0-0.1,0-0.1,0-0.1c0.1-0.1,0-0.4-0.3-0.3
		s-0.3-0.1-0.4-0.1v-0.1c0-0.1,0.1-0.1,0.1-0.1c0.1,0,0.3,0,0.4,0l-0.3-0.4l0.4-0.1c-0.1-0.1-0.4-0.1-0.5-0.3
		c-0.1-0.3,0.1-0.3,0.3-0.4c-0.1,0-0.3-0.1-0.4-0.1c-0.1,0-0.3-0.3-0.3-0.4c0,0,0-0.1,0.1-0.1s0.1-0.1,0.3-0.1s0.3,0,0.4,0
		c0-0.1-0.1-0.3-0.1-0.3c0.3-0.3,0.4,0,0.7,0v-0.1c-0.1-0.3-0.1-0.3,0.1-0.4c0.1,0,0.1,0,0.3-0.1c0.3-0.1,0.5-0.4,0.8-0.4
		c0.1,0,0.3-0.1,0.3-0.3l0,0c0-0.1,0-0.3,0.1-0.4c0.1,0,0.1-0.1,0.1-0.3l0,0c0.3-0.1,0.3-0.5,0.4-0.8c0,0,0.1-0.1,0-0.3
		c-0.1-0.3-0.1-0.5,0.1-0.8v-0.1c0-0.1,0-0.3,0-0.4c0.1-0.3,0.1-0.4-0.3-0.5l0,0c-0.1-0.1-0.1-0.3-0.3-0.4c0-0.1-0.1-0.1,0-0.3
		l0.1-0.1c0.3,0,0.4,0,0.5,0.4l0.1-0.3L463.4,517.2L463.4,517.2z"/>
	<path id="Path_7" d="M467.8,515.5l-0.4,0.1c0,0.1,0.1,0.3-0.1,0.4c-0.4,0.3-0.5-0.1-0.7-0.3c-0.1,0.1-0.3,0.3-0.5,0.4
		s-0.4-0.1-0.5-0.4c-0.1,0.3,0,0.4,0.1,0.4c0.3,0.1,0.7,0,0.8-0.3l0.4,0.3l0,0c0,0.4,0.3,0.4,0.5,0.4c-0.1,0.3-0.3,0.3-0.4,0.1
		c-0.3-0.1-0.3-0.1-0.4,0.1c0,0.1-0.1,0.1-0.3,0.1c-0.1-0.1-0.3-0.3-0.5-0.1h-0.1c-0.1-0.3-0.5-0.3-0.8-0.4c-0.1,0-0.4,0-0.4,0.1
		h-0.7c-0.3,0-0.5,0-0.8,0.3h-0.1c-0.3-0.1-0.5-0.3-0.8-0.1c-0.1,0-0.3-0.1-0.5-0.1c0-0.3-0.1-0.4-0.3-0.4s-0.3-0.1-0.3-0.3
		c0-0.1-0.1-0.3-0.3-0.3l0,0c-0.3,0-0.4,0-0.7,0c-0.1-0.4-0.4-0.4-0.7-0.1c-0.1,0.1-0.3,0-0.4-0.1l0.7-0.4l0,0c0.5,0,0.5-0.5,0.8-1
		c0.1-0.3,0.3-0.4,0.5-0.5c0.1-0.1,0.4-0.3,0.4-0.4c0.1-0.1,0.3-0.4,0.5-0.3c0,0,0.1,0,0.1-0.1c0.1,0,0.1-0.1,0.3-0.3
		c0,0.1,0,0.1,0,0.3c0.1,0.1,0.1,0.1,0.3,0c0.1-0.3,0.3-0.1,0.4,0c0,0,0,0.1,0.1,0.1l0.4-0.4l0.4,0.3l0.1-0.1
		c0.1-0.1,0.3-0.1,0.4-0.1l0,0c0.1,0,0.1,0,0.3,0c0.3,0,0.4-0.1,0.5,0.1c0.1,0,0.1,0,0.3,0c0.1-0.1,0.3,0,0.4,0.1c0,0,0,0.1-0.1,0.1
		c0,0.1,0,0.1,0,0.3c0.1,0,0.1,0,0.3,0c0.4-0.1,0.4-0.1,0.4,0.3l0.1,0.1l0.4-0.1l0.1,0.7c0.1-0.3,0.5-0.4,0.8-0.3l0,0
		c0.4,0.1,0.4,0.3,0.1,0.5c0.1,0,0.1,0,0.3,0.1l0.1,0.1c-0.1,0-0.1,0.1-0.3,0.1s-0.3,0-0.4-0.1c0.1,0.1,0.1,0.3,0.3,0.4
		c0,0.1,0,0.1,0,0.3c-0.4,0-0.3,0.5-0.7,0.5c0,0.1,0.1,0.4-0.1,0.4c0,0.1,0,0.1-0.1,0.3l-0.3-0.1L467.8,515.5c0-0.1,0.1-0.3,0.1-0.3
		c0.1-0.3,0.1-0.7-0.1-0.7c0,0.1,0,0.3,0,0.4c0,0.3-0.3,0-0.4,0.1L467.8,515.5z M467.6,514.5c-0.1-0.1-0.4-0.1-0.7,0H467.6z"/>
	<path id="Path_8" d="M441.5,522.2c0,0.3-0.1,0.5-0.5,0.4c-0.1,0-0.4-0.1-0.5-0.3c0-0.1,0-0.3,0-0.5c-0.1,0.1-0.1,0.3-0.3,0.4
		c-0.1,0.1-0.3,0.3-0.4,0.1s-0.1-0.3,0-0.4c0-0.1,0.1-0.1,0.1-0.3c0-0.1,0-0.3-0.1-0.4s-0.1-0.3,0-0.4s0.3-0.3,0-0.4
		c-0.1-0.1-0.1-0.3,0-0.4l0.1-0.1c0.3,0,0.3-0.1,0.3-0.4c0-0.1,0.4-0.4,0.5-0.4c0,0,0,0,0.1,0c0.1,0.3,0.1,0.3,0.5,0.1l0.1,0.4
		c0.1-0.1,0.1-0.3,0-0.4c-0.3-0.1-0.4-0.3-0.7-0.3c-0.1,0-0.1-0.1-0.1-0.3c0-0.1,0.1-0.4,0.4-0.4c0.1,0,0.3,0.1,0.3,0.3
		c0,0.3,0.4,0.4,0.7,0.4h0.1l0.1-0.1v-0.1h-0.4c-0.3,0-0.3,0-0.3-0.3c0-0.1,0-0.3-0.1-0.3s-0.1,0-0.3-0.1c0-0.1,0.1-0.3,0.1-0.3h0.1
		v-0.1h-0.4c-0.1-0.4-0.1-0.5,0.3-0.7c0-0.1,0-0.3,0.1-0.4c0-0.1,0.3-0.1,0.4-0.3c-0.1-0.4,0-0.4,0.3-0.5c0.1,0,0.1-0.1,0.3-0.3
		c0.1-0.1,0.1-0.3,0.3-0.1c0,0,0.1,0,0.1-0.1c0-0.1,0.1-0.1,0.3-0.1s0.1-0.1,0.3-0.1l0.1-0.1c0.1,0,0.3,0,0.4,0v0.1
		c-0.3,0.1-0.3,0.3-0.1,0.7c-0.3,0.1-0.4,0.3-0.3,0.5v0.1c-0.1,0.1-0.1,0.1-0.1,0.4c0,0.1,0.3,0.3,0.4,0.1l-0.3-0.4h0.4
		c0-0.1-0.1-0.3-0.1-0.4c0-0.1,0.3-0.1,0.4-0.3c0-0.1-0.3-0.4-0.1-0.4c0.1,0,0.3-0.1,0.5-0.3c0-0.3,0-0.3,0.7-0.4
		c0.1-0.4,0.5-0.5,1-0.5c0.1,0,0.3,0.1,0.4-0.1c0.1,0.1,0.1,0.1,0.3,0.3c0.1,0.1,0.1,0.1,0.3,0c0-0.1,0.1-0.1,0.1-0.1l0,0
		c0.1,0,0.3,0.1,0.4,0.1v0.1c-0.1,0.1-0.1,0.4-0.1,0.5v0.1c0,0.3-0.1,0.5-0.3,0.7c-0.1,0.4-0.1,0.4,0.1,0.8
		c-0.1,0.1-0.3,0.3-0.1,0.5h-0.7c0.1-0.3,0.3-0.5,0.4-0.7c0-0.3,0-0.4-0.3-0.5h-0.1c0,0,0,0.1,0.1,0.1c0.3,0.1,0.3,0.3,0.1,0.4
		c-0.1,0.1-0.3,0.1-0.3,0.1c0,0.1,0.3,0.3,0,0.4c-0.3,0.1-0.4,0-0.5-0.1l-0.1,0.4c-0.4-0.1-0.5-0.1-0.8,0.1
		c-0.3-0.1-0.4-0.1-0.7,0.1c-0.1,0.1-0.3,0.1-0.4,0c-0.1-0.1-0.3-0.1-0.1-0.4v-0.1h-0.1c-0.1,0.1,0,0.5,0.3,0.5
		c0.1,0,0.3,0.1,0.3,0.1c-0.1-0.1-0.4,0-0.5,0.1v0.1l-0.5,0.3c-0.1,0-0.1,0-0.3,0.1c-0.3,0.1-0.4-0.1-0.4-0.4c-0.3,0-0.5,0-0.3-0.4
		l-0.3,0.3c0.1,0.3,0.4,0.5,0.5,0.7c0,0,0.1,0.1,0.1,0.3c0,0.1,0,0.4,0,0.5c-0.5,0.4-0.5,0.5-0.3,1c-0.3,0.3-0.3,0.3,0,0.7
		c-0.3,0.3-0.3,0.5,0,0.7l0.3,0.8c0,0.1-0.3,0.4-0.4,0.3C441.9,522.3,441.8,522.2,441.5,522.2z"/>
	<path id="Path_9" d="M445.2,521.7l0.1,0.1c0.3-0.5,0.5-0.5,1.1-0.1l0.7-0.4c0.3,0.3-0.3,0.4,0,0.7l0.4-0.3l0,0l-0.1,0.5h0.5
		l-0.1,0.5c0.1,0,0.4-0.1,0.5-0.1c0.3,0,0,0.3,0.1,0.4c0.1,0,0.3,0,0.3,0.1c0.3,0.1,0.3,0.1,0.1,0.4c-0.1,0.1-0.1,0.1-0.3,0.3l0,0
		c0.1,0,0.1,0.1,0.3,0.1c0.1,0.1,0.1,0.3,0,0.4c-0.1,0.1-0.1,0.3,0,0.3c0,0,0.1,0,0.3,0.1s0.1,0.1,0.1,0.1l-0.1,0.1
		c0,0-0.1,0-0.1,0.1c-0.1,0-0.1,0.1,0,0.3c0.1,0.1,0.1,0.1,0.3,0.3H449c0,0.1-0.1,0.4-0.3,0.5c-0.1,0.1-0.4,0.1-0.5,0.1
		c0,0,0,0.3-0.3,0.1c0.1-0.1,0.4-0.3,0.5-0.4c0.1,0,0.1-0.1,0.1-0.3c0-0.1,0.1-0.4,0.3-0.5c0.1-0.1,0.1-0.3,0.1-0.4
		c-0.1-0.3-0.3-0.3-0.5-0.3c0.1,0.3,0.5,0.1,0.4,0.5c-0.1,0.4-0.4,0.3-0.7,0.3v0.1l0.4,0.3c0,0.1-0.1,0.3-0.3,0.3s-0.1,0-0.3,0.1
		c0,0.1-0.1,0.1-0.1,0.3l-0.3-0.3c-0.1,0.1-0.1,0.4-0.4,0.4c-0.3,0-0.3-0.3-0.4-0.4h-0.1c0,0.1,0.1,0.3,0.3,0.4s0.4,0.1,0.5,0.1
		s0.1,0,0.3-0.1c0,0.1,0,0.1,0,0.3c-0.1,0.3-0.4,0.4-0.7,0.3h-0.1c-0.1-0.1-0.3-0.1-0.4,0.1c-0.1,0.1-0.4,0.1-0.5,0c0,0,0,0-0.1-0.1
		c-0.1-0.1-0.1-0.3-0.4-0.3c-0.1,0.1-0.4,0-0.4-0.3c0,0,0,0,0-0.1s-0.1-0.3-0.3-0.1c-0.3,0.1-0.3,0-0.4-0.1
		c-0.1-0.3-0.1-0.4-0.5-0.4l0.1-1.1c0.1,0.1,0.3,0.1,0.4,0.3c0,0,0.1,0,0.1,0.1c0,0.4,0.4,0.7,0.8,0.7c0.1,0,0.4-0.1,0.4-0.3l0,0
		c-0.3,0.3-0.7,0.3-1,0c-0.1-0.1,0-0.3-0.1-0.5c-0.1-0.1-0.4-0.1-0.4-0.3c0-0.3,0.1-0.5,0.5-0.5c-0.4-0.3-0.7-0.5-0.4-1.1h-0.1
		c0,0.1-0.1,0.3-0.1,0.3v0.1c0.1,0.3,0.1,0.7-0.1,1l-0.3-0.1l0.3-0.3c-0.1,0-0.1-0.1-0.1-0.1c-0.3,0-0.3-0.1-0.3-0.4
		c0-0.3,0.3-0.1,0.4-0.1h0.1c0-0.1-0.1-0.1-0.1-0.3c-0.1-0.1-0.1-0.4,0-0.4l0,0c0.1-0.1,0.3,0,0.4,0c0.1,0,0.1,0,0.3,0l-0.1-0.1
		c0-0.1,0-0.1,0-0.3c0.1,0,0.1,0,0.3,0c0.1,0,0.3,0,0.4,0.1v-0.1c0-0.1-0.1-0.1-0.1-0.3c0-0.1,0-0.1,0-0.3c0.1-0.1,0.1-0.1,0.3-0.1
		c0,0,0.1,0.1,0.1,0.3v0.1L445.2,521.7L445.2,521.7z"/>
	<path id="Path_10" d="M458.5,514.7c0,0,0,0.1,0.1,0.1c0.1,0.1,0.1,0.3,0,0.4s-0.4,0.1-0.5,0c0,0-0.1-0.1-0.3-0.1
		c-0.4,0.1-0.5,0.1-0.7-0.3l-0.1-0.1h-0.1l0.4,0.5l-0.3,0.3c-0.3-0.3-0.7-0.1-1,0c0,0-0.1,0.1-0.3,0.1s-0.3,0-0.4,0
		c-0.1-0.3,0.1-0.5,0.3-0.8c0.1-0.3,0.1-0.5,0.1-0.8l0,0c-0.3-0.1-0.1-0.5-0.3-0.8v-0.1c0-0.4-0.1-0.5-0.5-0.5c-0.1,0-0.4,0-0.5-0.1
		c-0.1-0.1-0.3-0.3-0.5-0.1l0,0c-0.1-0.4-0.3-0.4-0.7-0.3c0.1-0.3,0.1-0.5,0.3-0.8c0-0.1,0.1-0.1,0.3-0.3c0.1,0.1,0.1,0.1,0.3,0.3
		c0,0.1,0.1,0.1,0.1,0.3c0.1-0.1,0.1-0.4,0.3-0.4s0.3,0,0.4,0.1c0-0.1,0-0.3,0-0.4c0-0.1,0.3-0.1,0.4-0.1c-0.1-0.3-0.4-0.3-0.5,0
		s-0.4,0.3-0.7,0.3c-0.1,0-0.3,0-0.4,0c0,0,0,0,0.1-0.1c0,0,0.1,0,0.1-0.1c0.1-0.4,0.4-0.3,0.7-0.3h0.1c0.3,0.3,0.4,0,0.7-0.1
		c0,0,0.1-0.1,0.1,0c0.3,0.1,0.4,0,0.5-0.1s0.3-0.1,0.4,0l0,0c0,0.1-0.1,0.1-0.1,0.3h-0.1c-0.3-0.1-0.3,0.1-0.4,0.3
		c-0.1,0.1-0.1,0.4,0,0.5h0.1c-0.1-0.1-0.1-0.4,0-0.7c0,0,0,0,0.5,0.1c0.1-0.5,0.3-0.5,0.5-0.5c0.3,0,0.3,0.1,0.3,0.5
		c0.3-0.1,0.3-0.1,0.1-0.4c0.1,0,0.1,0,0.3,0s0.1,0,0.3,0.1c0,0.1,0.1,0.3,0.3,0.1c0.1,0,0.3,0,0.4,0.3c0,0.1,0.1,0.3,0.3,0.1
		c0.3-0.1,0.3,0,0.4,0.1c0.1,0.4,0,0.4,0.5,0.3c0.1,0.1,0.1,0.5,0.5,0.3c0,0.1-0.1,0.3-0.1,0.4c0,0.1,0,0.1,0,0.3c0.1,0,0.1,0,0.3,0
		s0.3,0,0.4-0.1v0.4c0.1,0.1,0.5-0.1,0.5,0.3s-0.3,0.3-0.5,0.3c-0.1,0.1-0.1,0.3-0.3,0.4c-0.1,0-0.3,0-0.4,0v0.1
		c0,0.1,0.1,0.1,0.1,0.3c0,0.1,0.1,0.1,0.1,0.3c-0.1,0-0.3,0-0.3,0h-0.1c0,0.1,0.1,0.1,0.1,0.3c0,0,0,0.1,0.1,0.1
		c-0.1,0-0.1,0.1-0.3,0.1c-0.1,0-0.3,0-0.4-0.1v0.4L458.5,514.7c0.1-0.1,0.4-0.1,0.4-0.1c0.1-0.3,0.3-0.4,0.4-0.7
		c0.1-0.4,0.3-0.7,0.4-1.1c0.1-0.4,0-0.4-0.3-0.5c-0.1,0-0.3-0.1-0.4,0.1c0.1,0,0.1,0,0.3,0s0.3,0,0.4,0.3l0,0
		c0,0.1-0.1,0.3-0.3,0.3c0,0,0,0-0.1,0c0.3,0.3,0.3,0.3,0,0.7v0.1c0,0.4,0,0.4-0.3,0.5c0,0.1,0,0.3,0,0.4c-0.1,0.3-0.3-0.1-0.4,0
		c-0.1,0.1-0.1,0.3-0.3,0.3c-0.1,0-0.4,0-0.5,0c0.1,0.1,0.3,0.1,0.3,0.1C458.2,514.9,458.4,514.7,458.5,514.7z M458.2,513.8
		c0.1,0.1,0,0.3-0.1,0.3c-0.3,0.3-0.4,0-0.5-0.1c0,0.3,0,0.4-0.3,0.4c-0.5,0-0.7-0.4-0.5-0.8c-0.1,0.1-0.3,0.4-0.1,0.5
		c0.1,0.3,0.3,0.4,0.5,0.4s0.4,0,0.7-0.1c0.1,0,0.4-0.1,0.5-0.3c0.1-0.1,0.3-0.3,0.4-0.4c0.1-0.1,0.3-0.3,0.1-0.4s-0.3-0.3-0.4-0.3
		l0.3,0.5L458.2,513.8z"/>
	<path id="Path_11" d="M470.7,522.9c-0.1,0.1-0.3,0.3,0,0.4v0.1c-0.1,0.1,0,0.4,0.1,0.5c0.1,0.3,0.1,0.3-0.1,0.4
		c-0.1,0.1-0.1,0.1,0,0.3c0.1,0.1,0.1,0.3,0,0.4c0,0,0,0.1,0,0.3c0,0.1,0,0.1,0,0.3h-0.3c0,0.1,0,0.1,0,0.3c0,0.1,0,0.1-0.1,0.1
		c-0.1,0-0.4,0.1-0.4,0.3c0,0,0,0-0.1,0l-0.3-0.4c0.3-0.5,0.3-0.5-0.3-0.8l0.1,0.1c0.1,0.1,0.1,0.1,0.1,0.3s-0.1,0.1-0.3,0.3
		c-0.3,0-0.4,0.1-0.5,0.4c0,0-0.3,0-0.4,0.1c-0.1,0.3-0.3,0.3-0.5,0.1h-0.1c0,0,0,0-0.1,0.1c-0.1,0.1-0.4,0.1-0.5,0
		c-0.1-0.1-0.1-0.3-0.1-0.5c0,0-0.1,0-0.1,0.1c0,0.1,0.1,0.4,0.1,0.5c0,0.1,0.3,0.1,0.4,0.1c0.1,0,0.4,0,0.5,0c0.4,0,0.7-0.1,1-0.4
		c0.1-0.1,0.1-0.1,0.3-0.1s0.1,0.1,0.3,0.1c0,0.1-0.1,0.1-0.1,0.3c-0.1,0-0.3,0.1-0.4,0.1l0.4,0.3h-0.3c0,0.1,0,0.4-0.3,0.3
		c0,0-0.1,0-0.1,0.1c-0.1,0.1-0.3,0.3-0.4,0h-0.1c-0.1,0.1-0.1,0.3-0.4,0.1c-0.3-0.1-0.1-0.3-0.1-0.4c0-0.1-0.1-0.3-0.3-0.3
		c0,0.3,0.1,0.5,0,0.7c-0.1,0.1-0.3,0-0.5-0.1c0,0.1-0.1,0.1-0.3,0.3c-0.1,0-0.3,0-0.3-0.1c0-0.1,0-0.3,0-0.4h-0.1
		c-0.1,0-0.3,0-0.4,0c-0.3-0.1-0.3-0.3-0.1-0.4c0.1-0.1,0.1-0.1,0.1-0.3c-0.3,0-0.4,0.3-0.4,0.5s0.3,0.4,0.4,0.4
		c0.3,0,0.3,0.1,0.4,0.3c0,0.1,0.1,0.3,0.3,0.1c0.3,0,0.3,0.1,0.3,0.3c-0.1,0.1-0.3,0.3-0.3,0.4c-0.1,0.3-0.4,0.4-0.5,0.1
		c-0.1-0.1-0.1-0.1-0.3-0.1c-0.1,0.1-0.4,0-0.5-0.3c0-0.1-0.1-0.3-0.4-0.3c-0.1,0-0.3-0.1-0.1-0.3c0.1-0.3,0.1-0.4-0.1-0.5l0.1-0.4
		c0.3,0,0.5-0.1,0.7-0.3c0,0,0.1-0.1,0.3-0.1s0.4-0.1,0.4-0.3c0.1-0.1,0.3-0.4,0.4-0.5c0.3-0.3,0.3-0.3,0.1-0.5l-0.1-0.1l0.1-0.1
		c0.4-0.3,0.7-0.7,0.7-1.2c0-0.3,0.1-0.5,0.3-0.7h0.1c0,0.1,0.1,0.1,0.1,0.3c0.1,0.3,0.3,0.3,0.5,0.3c0,0,0,0,0.1,0s0.4,0,0.5-0.1
		c0.1,0,0.3-0.1,0.3-0.1c0.1-0.1,0.3-0.3,0.4-0.4c0.1-0.1,0.1-0.1,0.1-0.3c0.1-0.1,0.3-0.3,0.4-0.3l0,0c0.1,0,0.3,0.1,0.4,0.1
		l0.1,0.1C470.5,522.8,470.5,522.8,470.7,522.9z M469,524.9c0-0.1-0.3-0.3-0.4-0.3h-0.1L469,524.9c0,0.3-0.1,0.4-0.5,0.4
		c0,0.3-0.1,0.4-0.4,0.3c-0.1,0.1-0.3,0.3-0.3,0.3c-0.3,0-0.4-0.1-0.4-0.4l0,0c-0.1,0.1,0,0.4,0.1,0.5c0.1,0.1,0.4,0.1,0.4,0l0,0
		c0,0,0.1,0,0.1-0.1c0.1-0.1,0.3-0.1,0.4-0.3c0.1,0,0.1-0.1,0.3-0.1C469,525.3,469,525.2,469,524.9C469,525.1,469,525.1,469,524.9
		L469,524.9z"/>
	<path id="Path_12" d="M445.2,521.8c-0.1,0-0.1-0.1-0.3-0.1s-0.3,0-0.5,0c-0.4,0.3-0.4,0.3-0.5-0.3c0,0.1-0.1,0.1-0.1,0.3
		c0,0.1,0.1,0.3,0.4,0.4c-0.1,0-0.1,0.1-0.3,0.1h-0.1c-0.1,0.1-0.4,0.3-0.5,0.1l0,0c-0.3-0.1-0.1-0.4-0.1-0.5c0,0,0,0,0-0.1
		c-0.1,0-0.1,0-0.3,0s-0.3,0-0.4-0.1c0-0.1,0.1-0.3,0.1-0.3l0.1-0.1c-0.1,0-0.3,0-0.4-0.1l-0.1-0.1c0-0.1,0.1-0.1,0.1-0.3
		c0.1,0,0.3-0.1,0.4-0.1c-0.1,0-0.1-0.1-0.3-0.1s-0.1-0.1-0.1-0.3c0.1,0,0.1-0.1,0.3-0.1s0.1,0,0.3,0v-0.1c-0.1,0-0.3,0-0.3-0.1
		c-0.1,0-0.3-0.1-0.3-0.1s0-0.1,0.1-0.3c0.1-0.1,0.3-0.1,0.4-0.1c0.1,0,0.1-0.1,0.3-0.1c0,0-0.1,0-0.1-0.1c-0.3,0-0.4-0.1-0.3-0.4
		c0-0.3,0.1-0.3,0.4-0.1h0.1v-0.1c0-0.1,0.1-0.1,0.3-0.1c0,0,0.1,0,0.1,0.1c0.1,0.1,0.1,0.1,0.3,0.3l0,0c0-0.1-0.1-0.3-0.1-0.4
		s0-0.3,0-0.3s0.1,0,0.3,0s0.1,0,0.3,0.1c0-0.1,0-0.3,0.1-0.4c0-0.4,0.1-0.4,0.5-0.3c0,0,0.1,0,0.1,0.1c0-0.1,0.1-0.1,0.1-0.3
		c0-0.1,0.1-0.1,0.3-0.1l0.1,0.1c0,0.1,0.1,0.1,0.1,0.3c0.1-0.1,0.3-0.3,0.4-0.4c0.3-0.1,0.1,0.1,0.3,0.3c0.1-0.1,0.1-0.1,0.3-0.3
		c0.1-0.1,0.4-0.1,0.5,0.1c0.1,0.1,0.3,0.3,0.4,0.4s0.3,0.1,0.3,0.1c0,0.1-0.1,0.3-0.3,0.4l-0.1,0.1l0.1,0.1c0.1,0.1,0.1,0.1,0,0.3
		v0.1c0,0.1,0,0.3,0,0.3h-0.1v0.1c0.1,0.1,0,0.3,0,0.3s0,0-0.1,0c-0.1,0.1-0.4,0.1-0.1,0.4c0,0.1,0,0.3-0.1,0.4c0,0-0.1,0-0.3,0
		c0.1,0.4-0.3,0.5-0.5,0.7C445.7,521.4,445.3,521.3,445.2,521.8L445.2,521.8z M444.1,520.4c-0.1,0.4,0,0.5,0.1,0.5s0.4,0.1,0.5,0.1
		c0.1,0.1,0.3,0,0.4,0l0,0l0.1-0.1c0.4,0.1,0.7-0.4,1-0.5c0,0,0,0,0-0.1c-0.1-0.3,0.1-0.4,0.3-0.5c0.1-0.1,0.1-0.1,0.1-0.3
		c0-0.1-0.1-0.1-0.3-0.3h-0.1c0.3,0.1,0.3,0.3,0.1,0.4s-0.3,0.1-0.4,0.3l0.3,0.3c-0.1,0.3-0.3,0.4-0.5,0.1v0.1c0,0.3,0,0.4-0.3,0.4
		c-0.3,0-0.3-0.1-0.3-0.4c0-0.1,0-0.1,0-0.3H445c0,0.1,0,0.3,0,0.5c0,0.1,0,0.3-0.1,0.3s-0.3-0.1-0.3-0.1l-0.1-0.1v0.1
		c-0.1,0-0.3,0-0.4,0C443.9,520.9,444.1,520.6,444.1,520.4L444.1,520.4z"/>
	<path id="Path_13" d="M467.5,522.5l-0.4,0.3c0-0.4,0.1-0.7-0.4-0.7c0-0.1,0-0.4,0.1-0.5c0,0,0.1,0,0.1-0.1s0.1-0.3,0.1-0.3
		c-0.1-0.3,0.1-0.5,0.1-0.8l0.1-0.1c0.4-0.1,0.4-0.1,0.3-0.5v-0.1c0.3-0.1,0.3-0.5,0-0.7l-0.1-0.1l0,0c0.1-0.1,0.3-0.3,0.3-0.4
		c0-0.1-0.1-0.3-0.3-0.4l-0.1-0.5c0.3-0.1,0.5-0.3,0.8-0.5c0.3-0.1,0.5-0.4,0.8-0.3l-0.1,0.4c0.1,0,0.3,0,0.4,0c0.1,0,0.3,0,0.1,0.3
		c-0.1,0.1,0,0.3,0.1,0.3s0.3,0,0.4,0.3c0,0.1,0.1,0.1,0.3,0.3c-0.4,0.3-0.1,0.4,0,0.7c-0.1,0.1-0.4,0.1-0.1,0.4l-0.3,0.1l0.3,0.1
		c0,0.1,0,0.3,0,0.4s-0.1,0.1-0.3,0.3c0,0.1,0.3,0.3,0,0.4c-0.1,0-0.3,0-0.5,0v0.1c0,0.1-0.1,0.3-0.3,0.3c0,0,0,0-0.1,0
		c-0.1-0.1-0.3-0.3-0.4-0.4v0.3l-0.3-0.1l0,0c0.1,0,0.1,0.1,0.3,0.3c0,0,0,0.1,0.1,0.3h-0.1c0.1,0.4,0.1,0.4-0.1,0.5
		c-0.1,0.1,0,0.5-0.3,0.4c-0.1,0-0.3-0.3-0.4-0.4l0,0c0,0.1,0.1,0.1,0.1,0.3c0.1,0.3,0,0.3-0.1,0.3s-0.1,0-0.3,0
		c-0.1,0-0.1,0-0.3-0.1c0.3,0.4,0.3,0.4,1,0.1c0.1,0,0.1,0.1,0.3,0.3c0,0.1,0.1,0.1,0.1,0.3c-0.1,0-0.3,0.1-0.4,0.1
		c-0.1,0-0.3-0.1-0.4,0.1h-0.1C467.6,522.8,467.5,522.6,467.5,522.5z"/>
	<path id="Path_14" d="M440.9,523.4c-0.3,0.4-0.3,0.4,0,0.8c0.1,0.1,0.1,0.3,0.1,0.4c0.1,0.3,0.1,0.4,0.5,0.3c0.1,0,0.1,0,0.3,0.1
		c0.3,0.1,0.7,0,0.8-0.4l0,0v-0.1c-0.1,0.1-0.3,0.4-0.4,0.4c-0.3,0.1-0.3-0.3-0.4-0.4c-0.4,0.3-0.4,0.3-0.5,0
		c-0.3-0.4,0.1-0.3,0.3-0.4c-0.1,0-0.1,0-0.3-0.1c-0.1,0-0.3,0-0.4-0.1C440.8,523.7,440.9,523.6,440.9,523.4c0,0,0,0,0-0.1h0.3v-0.1
		c-0.1-0.1-0.1-0.1-0.3-0.3l-0.1-0.1l0.1-0.1c0.1,0,0.3,0,0.4,0v-0.1l-0.3-0.1c0.1-0.1,0.3-0.3,0.5-0.3c0.4,0,0.8,0,1.1-0.4
		c0.1,0.1,0.3,0.3,0.4,0.3c0.1,0,0.3-0.1,0.5-0.1l-0.1,0.1c-0.3,0.1-0.4,0.4-0.4,0.7v0.1c-0.4,0.4-0.3,0.7,0,1c0,0.1,0,0.3,0,0.5
		c0,0.1,0,0.3-0.1,0.4l-0.1,0.1c0,0,0,0.1,0.1,0.1c0.3,0.1,0.3,0.4,0,0.5l-0.1,0.1c-0.1,0.3-0.4,0.3-0.5,0.3l-0.1-0.1
		c0-0.1,0-0.1,0-0.3H442l-0.3,0.3c-0.3,0.1-0.5,0-0.7-0.1c0-0.1,0-0.3,0-0.4c-0.1,0-0.1,0.1-0.3,0.1c-0.1,0.1-0.3,0.1-0.4,0
		c0-0.1,0-0.3,0-0.3c0.1-0.1,0.1-0.3,0-0.4c0,0,0,0-0.1,0c-0.1-0.1-0.3-0.1-0.4-0.3l0.4-0.4c-0.1,0-0.3,0-0.3,0
		c-0.1,0-0.1-0.1-0.3-0.1c0-0.1,0.1-0.1,0.1-0.3l0.1-0.1c0-0.3,0.1-0.4,0.3-0.4C440.7,523.2,440.8,523.3,440.9,523.4z"/>
	<path id="Path_15" d="M448.7,528.9c0.1-0.3,0.3-0.5,0.5-0.7c0-0.1,0.1-0.1,0.1-0.1c0.4-0.1,0.8-0.3,1.2-0.4
		c0.5-0.1,1.1,0.1,1.2,0.5l0,0c-0.4,0.1-0.7,0.3-1,0.5c-0.1,0.1-0.5,0.1-0.7-0.1c-0.3-0.3-0.4-0.3-0.7-0.1
		C449.2,528.7,449,528.9,448.7,528.9z"/>
	<path id="Path_16" d="M463.5,527.3c-0.1,0.3-0.3,0.5-0.4,0.8c-0.1,0.4-0.4,0.5-0.8,0.4c-0.1-0.1-0.4,0-0.4,0.1
		c-0.3,0.4-0.4,0.4-0.8,0.1c-0.1,0-0.3-0.1-0.4-0.1c0.4-0.3,0.8-0.5,1.2-0.7c0.3,0,0.4-0.1,0.5-0.4c0.1-0.1,0.3-0.3,0.4-0.4
		C463,527.4,463.3,527.1,463.5,527.3z"/>
	<path id="Path_17" d="M458.5,536.9c0.3-0.3,0.7-0.4,1-0.5c0.3-0.1,0.5-0.1,0.8,0c-0.1,0.3-0.1,0.5-0.3,0.7
		c-0.1,0.3-0.3,0.4-0.5,0.3c0,0,0,0-0.1,0C459.2,537.2,458.9,537.1,458.5,536.9C458.5,537.1,458.5,537.1,458.5,536.9
		C458.5,537.1,458.5,537.1,458.5,536.9z"/>
	<path id="Path_18" d="M448.7,526.7l0.3-0.3c0.3,0.1,0.4,0.3,0.7,0.4c0.3,0.1,0.4,0.1,0.7,0.3c0.1,0,0.3,0.1,0.4,0.3
		c-0.3,0.1-0.5,0.1-0.8,0.3c-0.1,0-0.3,0-0.4-0.1C449.1,527.3,449,527,448.7,526.7z"/>
	<path id="Path_19" class="st0" d="M458.5,514.7c-0.1,0-0.4,0.1-0.5,0.1s-0.1-0.1-0.3-0.1c0.1,0,0.4,0,0.5,0c0.1,0,0.1-0.1,0.3-0.3
		s0.3,0.3,0.4,0c0-0.1,0-0.3,0-0.4c0.3,0,0.4-0.1,0.3-0.5v-0.1c0.3-0.3,0.3-0.3,0-0.7c0,0,0,0,0.1,0s0.3,0,0.3-0.3
		c0-0.1-0.1-0.3-0.4-0.3l0,0c-0.1,0-0.1,0-0.3,0c0.1-0.3,0.3-0.1,0.4-0.1c0.4,0.1,0.4,0.3,0.3,0.5c-0.1,0.4-0.3,0.8-0.4,1.1
		c-0.1,0.3-0.3,0.4-0.4,0.7C458.9,514.6,458.8,514.6,458.5,514.7L458.5,514.7z"/>
	<path id="Path_20" class="st0" d="M454.1,530c0.1,0.8,0.3,1.6,0.4,2.6c0.1,0.8,0.1,1.5,0.3,2.3c0,0.5,0.1,1.1,0.1,1.5
		c0,0.1,0,0.3,0,0.4c0-0.1,0-0.1,0-0.3c-0.1-0.7-0.1-1.4-0.3-1.9c-0.1-1-0.3-1.8-0.4-2.7c0-0.5-0.1-1-0.1-1.5
		C454.1,530.2,454.1,530.1,454.1,530L454.1,530z"/>
	<path id="Path_21" class="st0" d="M448.7,516.5c-0.1,0.3-0.3,0.4-0.5,0.3l0,0c-0.3-0.1-0.3-0.3-0.3-0.4c0,0,0-0.1,0-0.3h0.4
		c0,0.1-0.4,0.3-0.1,0.5C448.3,516.8,448.4,516.6,448.7,516.5z"/>
	<path id="Path_22" class="st0" d="M447.7,516c-0.1-0.3-0.1-0.4,0.1-0.5L447.7,516z"/>
	<path id="Path_23" class="st0" d="M467.8,515.5l-0.4-0.4c0.1-0.1,0.4,0.1,0.4-0.1c0-0.1,0-0.3,0-0.4c0.1,0,0.3,0.4,0.1,0.7
		C467.8,515.4,467.8,515.4,467.8,515.5L467.8,515.5z"/>
	<path id="Path_24" class="st0" d="M467.6,514.5h-0.7C467.2,514.3,467.5,514.3,467.6,514.5z"/>
	<path id="Path_25" class="st0" d="M458.2,513.8l0.5-0.3l-0.3-0.5c0.1,0,0.4,0.1,0.4,0.3c0.1,0.1,0,0.3-0.1,0.4s-0.3,0.3-0.4,0.4
		c-0.1,0.1-0.4,0.1-0.5,0.3c-0.1,0-0.4,0.1-0.7,0.1c-0.3,0-0.4-0.1-0.5-0.4c-0.1-0.1,0-0.4,0.1-0.5c0,0.5,0,0.8,0.5,0.8
		c0.3,0,0.3-0.1,0.3-0.4c0.1,0.1,0.3,0.4,0.5,0.1C458.2,513.9,458.4,513.9,458.2,513.8z"/>
	<path id="Path_26" class="st0" d="M469,525.1c0.1,0.1,0,0.4-0.1,0.4l0,0c-0.1,0-0.1,0.1-0.3,0.1c-0.1,0.1-0.3,0.1-0.4,0.3
		c0,0-0.1,0-0.1,0.1c-0.1,0.1-0.3,0.1-0.4,0.1l0,0c-0.1-0.1-0.3-0.3-0.1-0.5c0,0.3,0.1,0.4,0.4,0.4l0,0c0.1,0,0.1-0.1,0.3-0.3
		c0.3,0.1,0.4,0,0.4-0.3C468.7,525.5,468.8,525.3,469,525.1L469,525.1z"/>
	<path id="Path_27" class="st0" d="M469,525.1l-0.5-0.3C468.6,524.7,468.7,524.7,469,525.1C468.8,524.9,469,524.9,469,525.1
		L469,525.1z"/>
	<path id="Path_28" class="st0" d="M444.1,520.4c0,0.1,0,0.3,0.1,0.4s0.3,0,0.4,0v-0.1l0.1,0.1c0.1,0,0.3,0.1,0.3,0.1
		c0-0.1,0.1-0.3,0.1-0.3c0-0.1,0-0.3,0-0.5h0.1c0,0.1,0,0.1,0,0.3c0,0.1,0,0.4,0.3,0.4c0.3,0,0.3-0.1,0.3-0.4v-0.1
		c0.3,0.3,0.4,0.1,0.5-0.1l-0.3-0.3c0.1,0,0.3-0.1,0.4-0.3c0.1-0.1,0-0.3-0.1-0.4h0.1c0.1,0.1,0.3,0.1,0.3,0.3c0,0.1,0,0.3-0.1,0.3
		c-0.1,0.1-0.4,0.3-0.3,0.5v0.1c-0.4,0.1-0.5,0.5-1,0.5c0,0-0.1,0-0.1,0.1s-0.3,0.1-0.4,0.1l0,0c-0.1-0.1-0.4-0.1-0.5-0.1
		C443.9,521,443.9,520.9,444.1,520.4z"/>
</g>
</svg>
