<?xml version="1.0" encoding="utf-8"?>
<!-- Generator: Adobe Illustrator 23.0.1, SVG Export Plug-In . SVG Version: 6.00 Build 0)  -->
<svg version="1.1" id="Layer_1" xmlns="http://www.w3.org/2000/svg" xmlns:xlink="http://www.w3.org/1999/xlink" x="0px" y="0px"
	 viewBox="0 0 45 45" style="enable-background:new 0 0 45 45;" xml:space="preserve">
<g id="delete" transform="translate(-17.379)">
	<g id="Group_353" transform="translate(17.379 2.672)">
		<g id="Group_352">
			<g id="Group_351">
				<path id="Path_428" d="M31.1,13l-3.6-0.1l-0.8,20.6l3.6,0.1L31.1,13z"/>
				<rect id="Rectangle_2022" x="20.7" y="13" width="3.6" height="20.6"/>
				<path id="Path_429" d="M18.2,33.5l-0.8-20.6L13.9,13l0.8,20.6L18.2,33.5z"/>
				<path id="Path_430" d="M1.5,4.2v3.5h3.7l2.9,33c0.1,0.9,0.8,1.6,1.8,1.6h25.2c0.9,0,1.7-0.7,1.8-1.6l2.9-33h3.7V4.2H1.5z
					 M33.5,38.8h-22L8.7,7.7h27.5L33.5,38.8z"/>
			</g>
		</g>
	</g>
	<g id="Group_355" transform="translate(22.138)">
		<g id="Group_354">
			<path id="Path_431" d="M23.6,0H11.9c-1.6,0-3,1.3-3,3v5.6h3.6V3.6H23v5.1h3.6V3C26.5,1.3,25.2,0,23.6,0z"/>
		</g>
	</g>
</g>
</svg>
